<?xml version="1.0" encoding="UTF-8"?>
<svg id="Layer_2" xmlns="http://www.w3.org/2000/svg" viewBox="0 0 54 82.67">
  <defs>
    <style>
      .cls-1 {
        fill: #221b1b;
      }

      .cls-2 {
        fill: #362d2d;
      }

      .cls-3 {
        fill: #aaa;
      }
    </style>
  </defs>
  <g id="combined">
    <g>
      <rect class="cls-2" x="0" y="2" width="54" height="4" rx="2" ry="2"/>
      <g>
        <path class="cls-1" d="M49,0H5c-1.1,0-2,.9-2,2v49.33c0,.43.14.85.4,1.2l22,29.33c.4.53,1,.8,1.6.8s1.2-.27,1.6-.8l22-29.33c.26-.35.4-.77.4-1.2V2c0-1.1-.9-2-2-2Z"/>
        <path class="cls-3" d="M27.8,77.27l22-29.33c.13-.17.2-.39.2-.6V2c0-.55-.45-1-1-1H5c-.55,0-1,.45-1,1v45.33c0,.21.07.43.2.6l22,29.33c.19.25.48.4.8.4s.61-.15.8-.4Z"/>
        <path class="cls-2" d="M49,2v45.33l-22,29.33L5,47.33V2h44M49,0H5c-1.1,0-2,.9-2,2v45.33c0,.43.14.85.4,1.2l22,29.33c.4.53,1,.8,1.6.8s1.2-.27,1.6-.8l22-29.33c.26-.35.4-.77.4-1.2V2c0-1.1-.9-2-2-2h0Z"/>
      </g>
    </g>
  </g>
</svg>