<svg width="130" height="60" viewBox="0 0 130 60" fill="none" xmlns="http://www.w3.org/2000/svg">
<path d="M129.07 43.1537C128.764 42.7249 128.361 42.5036 127.875 42.5036C127.306 42.5036 126.764 42.7664 126.25 43.2781C125.736 43.9282 124.944 44.7719 123.889 45.8092C122.833 46.8466 121.68 47.8701 120.43 48.8659C119.235 49.8618 117.985 50.7055 116.665 51.3832C115.346 52.0609 114.151 52.3929 113.067 52.3929C112.387 52.3929 111.873 52.2822 111.498 52.0471C111.137 51.812 110.942 51.3417 110.942 50.6087C110.942 49.7235 111.164 48.7 111.595 47.552C112.026 46.404 112.526 45.256 113.095 44.1218C113.665 42.9877 114.137 42.0333 114.526 41.245C114.984 40.3044 115.429 39.3639 115.873 38.4234C116.318 37.4829 116.818 36.487 117.415 35.4082C117.554 35.1592 117.638 34.9241 117.679 34.6752C117.721 34.4262 117.749 34.1911 117.777 33.9421C117.777 32.9186 117.401 32.0749 116.651 31.411C115.901 30.7471 115.012 30.4152 113.984 30.4152C113.359 30.4152 112.748 30.5811 112.151 30.8993C111.553 31.2174 111.026 31.7706 110.567 32.5175L109.178 35.3529C108.803 36.1136 108.442 36.8466 108.095 37.5797C107.747 38.3128 107.511 38.8522 107.386 39.1979C106.955 40.2768 106.358 41.5354 105.622 42.9877C104.872 44.4261 104.191 45.9752 103.594 47.6073C103.51 47.8286 103.441 48.0499 103.372 48.2712C103.122 48.4787 102.872 48.6723 102.608 48.8798C101.316 49.8479 100.01 50.664 98.7042 51.3279C97.3846 51.9918 96.1622 52.3237 95.0231 52.3237C94.4258 52.3237 93.9396 52.2407 93.5784 52.0748C93.2173 51.9088 93.0228 51.5353 93.0228 50.9406C93.0228 50.0554 93.3423 49.0872 93.9813 48.0637C94.6203 47.0402 95.3287 46.072 96.0927 45.1868C96.8567 44.3016 97.4401 43.6239 97.8291 43.1675C98.8292 41.9503 99.7044 40.6087 100.454 39.1565C101.205 37.7042 101.58 36.1551 101.58 34.5368C101.58 32.4898 100.899 31.0514 99.5516 30.2215C98.1903 29.3917 96.6067 28.9905 94.787 28.9905C92.3977 28.9905 90.3696 29.53 88.6888 30.595C87.008 31.66 85.5217 32.8356 84.2576 34.0942C84.1465 32.2547 83.5214 30.9546 82.3823 30.1662C81.2433 29.3778 79.9097 28.9905 78.3956 28.9905C76.3675 28.9905 74.5895 29.3502 73.0615 30.0832C71.5334 30.8163 70.1999 31.7015 69.047 32.7388C67.894 33.7761 66.8244 34.7443 65.852 35.6295C66.1715 34.772 66.3382 33.9974 66.3382 33.3197C66.3382 32.3792 66.0743 31.6461 65.5464 31.1482C65.0186 30.6503 64.4074 30.4013 63.7406 30.4013C62.9488 30.4013 62.157 30.6918 61.3652 31.2589C60.5735 31.8259 59.9206 32.6973 59.4344 33.8591C58.8371 35.2699 58.0314 37.0679 57.0174 39.2948C56.17 41.1205 55.3088 43.0153 54.4198 44.9379C53.8502 45.4773 53.2946 46.0167 52.725 46.5423C50.9053 48.2435 49.1412 49.6681 47.4326 50.8023C45.724 51.9364 44.3071 52.5035 43.1958 52.5035C42.6541 52.5035 42.3068 52.3099 42.1401 51.9364C41.9734 51.563 41.8901 51.1066 41.8901 50.5533C41.8901 49.9586 41.9595 49.3362 42.1123 48.6723C42.2651 48.0084 42.404 47.4275 42.543 46.9157C43.0847 44.9932 43.9876 42.5313 45.2517 39.5161C46.5158 36.5009 47.766 33.5548 49.0162 30.6641C50.2108 27.9117 51.2943 25.3391 52.2528 22.9463C53.2112 20.5535 53.6974 18.9768 53.6974 18.2299C53.6418 17.1511 53.2529 16.3627 52.5167 15.8648C51.7805 15.3669 51.0026 15.1179 50.1552 15.1179C49.3634 15.1179 48.6272 15.3392 47.9327 15.768C47.2381 16.1967 46.7241 16.9298 46.363 17.9533L41.0705 29.7789L37.0838 38.8937L24.5125 39.8203H17.0669C17.7475 38.8245 18.5116 37.5935 19.3867 36.1274C20.2618 34.6613 21.1786 33.1261 22.151 31.5078C23.1789 29.8066 24.2763 28.0224 25.4432 26.1552C26.61 24.288 27.8185 22.4622 29.0687 20.678C30.7773 18.2437 32.5276 16.0169 34.3195 13.9976C36.1114 11.9782 37.9034 10.36 39.6953 9.15667C41.4872 7.95336 43.2097 7.35862 44.8627 7.35862C45.7518 7.35862 46.6547 7.57992 47.5715 8.02252C48.4883 8.46511 49.3496 9.1705 50.1969 10.1525C50.7664 10.8579 51.3637 11.3143 52.0027 11.5356C52.6417 11.7569 53.1973 11.8537 53.6974 11.8537C54.517 11.8537 55.2532 11.5495 55.9339 10.9409C56.6145 10.3323 56.9479 9.68225 56.9479 8.97687C56.9479 8.68641 56.8507 8.35446 56.6562 8.00868C54.892 5.1733 53.0445 3.12629 51.0998 1.89531C49.1551 0.650509 47.1826 0.0281067 45.1823 0.0281067C43.043 0.0281067 40.876 0.595184 38.709 1.72934C36.5421 2.86349 34.3889 4.38492 32.2775 6.30745C30.1383 8.20232 28.0547 10.3738 26.0266 12.8496C23.9985 15.3254 22.0954 17.8565 20.3035 20.4429C18.4838 23.057 16.8169 25.6434 15.275 28.1883C13.7469 30.7333 12.3856 33.0431 11.191 35.1178C10.1353 36.985 9.21848 38.6447 8.46837 40.1246C7.70436 41.5907 7.14873 42.6004 6.80145 43.1398L1.42564 52.1301C0.689414 53.4579 0.328247 54.7995 0.328247 56.1826C0.328247 57.054 0.606075 57.8977 1.16171 58.7414C1.71735 59.5851 2.78695 60 4.35664 60C5.38457 60 6.45418 59.3361 7.56546 57.9945C8.67674 56.6529 9.73244 55.1591 10.7465 53.5132C11.2882 52.5727 11.8439 51.5492 12.4134 50.4703C12.9829 49.3915 13.5525 48.2297 14.122 46.9849L35.278 46.0167C35.278 47.0679 35.2224 48.1329 35.1113 49.1979C35.0002 50.2629 34.9446 51.3694 34.9446 52.5035C34.9446 54.3154 35.4169 55.906 36.3476 57.2891C37.2783 58.6722 38.9035 59.3499 41.2094 59.3499C43.1681 59.3499 45.1267 58.852 47.1131 57.8562C48.0994 57.3583 49.0856 56.7773 50.0719 56.1134C50.0719 56.1964 50.0441 56.2933 50.0441 56.3624C50.0441 57.2338 50.3358 57.9668 50.9053 58.5892C51.4749 59.2116 52.2528 59.5159 53.2251 59.5159C54.4198 59.5159 55.406 58.9627 56.17 57.8562C56.934 56.7497 57.6008 55.491 58.1425 54.0664C58.6843 52.6418 59.2122 51.4662 59.7261 50.5257C60.5735 49.1979 61.4903 47.7318 62.5182 46.1135C63.5461 44.4953 64.713 42.9185 66.0326 41.3694C67.3106 39.8618 68.6997 38.6032 70.2277 37.6212C71.7418 36.6392 73.3115 36.1413 74.909 36.1413C75.8535 36.1413 76.3397 36.6392 76.3397 37.635C76.3397 38.0361 76.2564 38.4372 76.0897 38.8245C75.923 39.2118 75.7146 39.6267 75.4368 40.0555C74.4367 41.7014 73.2142 43.5133 71.7974 45.4911C70.3666 47.469 69.1164 49.4468 68.0329 51.4524C66.9494 53.4579 66.4077 55.3251 66.4077 57.0816C66.4632 57.787 66.8383 58.3679 67.5328 58.8244C68.2274 59.2808 68.9219 59.5159 69.6304 59.5159C70.825 59.5159 71.8113 58.9627 72.5753 57.8562C73.3393 56.7497 74.0061 55.491 74.5478 54.0664C75.0895 52.6418 75.6174 51.4662 76.1314 50.5257C76.9787 49.1979 77.8955 47.7318 78.9235 46.1135C79.9514 44.4953 81.1182 42.9185 82.4379 41.3694C83.7158 39.8618 85.1049 38.6032 86.6329 37.6212C88.1471 36.6392 89.7167 36.1413 91.3142 36.1413C92.2588 36.1413 92.745 36.6392 92.745 37.635C92.745 38.0361 92.6616 38.4372 92.4949 38.8245C92.3283 39.2118 92.1199 39.6267 91.8421 40.0555C91.1059 41.2173 90.1613 42.4898 89.0083 43.8867C87.8553 45.2837 86.8274 46.7774 85.9106 48.3818C85.0077 49.9862 84.5493 51.7151 84.5493 53.5547C84.5493 55.6017 85.1605 57.1093 86.3968 58.0498C87.6331 58.9903 89.2584 59.4744 91.2587 59.4744C93.259 59.4744 95.412 58.9627 97.5235 57.9392C99.3293 57.0678 101.107 55.9613 102.872 54.6473C103.149 55.9751 103.691 57.0401 104.538 57.8009C105.803 58.9212 107.525 59.4883 109.734 59.4883C111.79 59.4883 113.845 58.9765 115.901 57.953C117.957 56.9295 119.957 55.6017 121.902 53.9558C123.861 52.3237 125.722 50.5948 127.514 48.7829C128.223 48.1605 128.723 47.4966 129.042 46.7913C129.348 46.0859 129.514 45.422 129.514 44.7996C129.514 44.1218 129.362 43.5686 129.042 43.1398L129.07 43.1537Z" fill="#C15F3C"/>
</svg>
