<svg width="17" height="12" viewBox="0 0 17 12" fill="none" xmlns="http://www.w3.org/2000/svg">
<path d="M8.39556 11.74C7.67556 11.74 6.98556 11.43 6.51556 10.89L0.615561 4.15C-0.0244389 3.41 -0.18444 2.36 0.22556 1.47C0.62556 0.580001 1.52556 0 2.50556 0H14.3056C15.2856 0 16.1756 0.580001 16.5856 1.47C16.9856 2.36 16.8356 3.41 16.1856 4.15L10.2856 10.89C9.80556 11.43 9.12556 11.74 8.40556 11.74H8.39556Z" fill="#2D9332"/>
<path d="M8.39556 2H14.2956C14.7256 2 14.9556 2.51 14.6756 2.83L11.9056 6L8.78556 9.57C8.58556 9.8 8.23556 9.8 8.03556 9.57L4.91557 6L2.14556 2.83C1.86556 2.51 2.09557 2 2.52557 2H8.42556H8.39556Z" fill="#5ACC5F"/>
</svg>
