<svg width="12" height="17" viewBox="0 0 12 17" fill="none" xmlns="http://www.w3.org/2000/svg">
<path d="M0 8.39556C0 7.67556 0.31 6.98556 0.85 6.51556L7.59 0.61556C8.33 -0.0244403 9.38 -0.18444 10.27 0.22556C11.16 0.62556 11.74 1.52556 11.74 2.50556V14.3056C11.74 15.2856 11.16 16.1756 10.27 16.5856C9.38 16.9856 8.33 16.8356 7.59 16.1856L0.85 10.2856C0.31 9.80556 0 9.12556 0 8.40556L0 8.39556Z" fill="#C56100"/>
<path d="M9.74 8.39557V14.2956C9.74 14.7256 9.23 14.9556 8.91 14.6756L5.74 11.9056L2.17 8.78556C1.94 8.58556 1.94 8.23556 2.17 8.03556L5.74 4.91556L8.91 2.14557C9.23 1.86557 9.74 2.09556 9.74 2.52556V8.42556V8.39557Z" fill="#FF942C"/>
</svg>
