<svg width="12" height="17" viewBox="0 0 12 17" fill="none" xmlns="http://www.w3.org/2000/svg">
<path d="M11.74 8.39556C11.74 7.67556 11.43 6.98556 10.89 6.51556L4.15 0.61556C3.41 -0.0244403 2.36 -0.18444 1.47 0.22556C0.580001 0.62556 0 1.52556 0 2.50556V14.3056C0 15.2856 0.580001 16.1756 1.47 16.5856C2.36 16.9856 3.41 16.8356 4.15 16.1856L10.89 10.2856C11.43 9.80556 11.74 9.12556 11.74 8.40556V8.39556Z" fill="#BC2404"/>
<path d="M2 8.39557V14.2956C2 14.7256 2.51 14.9556 2.83 14.6756L6 11.9056L9.57 8.78556C9.8 8.58556 9.8 8.23556 9.57 8.03556L6 4.91556L2.83 2.14557C2.51 1.86557 2 2.09556 2 2.52556V8.42556V8.39557Z" fill="#FA502C"/>
</svg>
