<svg width="17" height="16" viewBox="0 0 17 16" fill="none" xmlns="http://www.w3.org/2000/svg">
<path d="M16.79 2.5H0V6.5C0 7.09 0.21 7.68 0.62 8.15L6.52 14.89C7 15.43 7.68 15.74 8.4 15.74C9.12 15.74 9.81 15.43 10.28 14.89L16.18 8.15C16.59 7.69 16.8 7.1 16.8 6.5V2.5H16.79Z" fill="#216C25"/>
<path d="M8.39998 11.74C7.67998 11.74 6.98998 11.43 6.51998 10.89L0.619976 4.15C-0.0300237 3.41 -0.180024 2.36 0.219976 1.47C0.629976 0.58 1.51998 0 2.49998 0H14.3C15.28 0 16.17 0.58 16.58 1.47C16.98 2.36 16.83 3.41 16.18 4.15L10.28 10.89C9.79998 11.43 9.11998 11.74 8.39998 11.74Z" fill="#2D9332"/>
<path d="M8.39996 2H14.3C14.73 2 14.96 2.51 14.68 2.83L11.91 6L8.78996 9.57C8.58996 9.8 8.23996 9.8 8.03996 9.57L4.91996 6L2.14996 2.83C1.86996 2.51 2.09996 2 2.52996 2H8.42996H8.39996Z" fill="#5ACC5F"/>
</svg>