<?xml version="1.0" encoding="UTF-8"?>
<svg id="icons-ready-for-export" xmlns="http://www.w3.org/2000/svg" viewBox="0 0 24 24">
  <defs>
    <style>
      .cls-1 {
        stroke-width: 0px;
      }
    </style>
  </defs>
  <path class="cls-1" d="m12,9c1.1,0,2,.9,2,2s-.9,2-2,2-2-.9-2-2,.9-2,2-2Zm0,7c-.55,0-1,.45-1,1s.45,1,1,1,1-.45,1-1-.45-1-1-1Zm8.71-3.29c-.2.2-.45.29-.71.29s-.51-.1-.71-.29l-.51-.51-.79,7.9c-.05.51-.48.9-1,.9H7c-.51,0-.94-.39-1-.9l-.79-7.9-.51.51c-.39.39-1.02.39-1.41,0s-.39-1.02,0-1.41L11.29,3.29c.39-.39,1.02-.39,1.41,0l8,8c.39.39.39,1.02,0,1.41Zm-3.75-2.34l-4.96-4.96-4.96,4.96.86,8.63h8.19l.86-8.63Z"/>
</svg>