<?xml version="1.0" encoding="UTF-8"?>
<svg id="icons-ready-for-export" xmlns="http://www.w3.org/2000/svg" viewBox="0 0 24 24">
  <defs>
    <style>
      .cls-1 {
        stroke-width: 0px;
      }
    </style>
  </defs>
  <path class="cls-1" d="m20.83,10.45l-1.77-2.66c.16-1.13-.15-2.26-.86-3.17-.8-1.03-2.01-1.62-3.32-1.62h-2.88c-.38,0-.72.21-.89.55l-1.97,3.94-.9,1.8-5.13,10.26c-.16.31-.14.68.04.98.18.29.51.47.85.47h13c.32,0,.61-.15.8-.4,1.89-2.51,2.21-5.8.91-8.6h1.29c.37,0,.71-.2.88-.53.18-.32.16-.72-.05-1.02Zm-8.21,4.45l-1.82,4.1h-5.18l4.36-8.72,1.39.79c1.34.77,1.88,2.42,1.25,3.83Zm4.38-4.9c-.36,0-.69.19-.87.51-.18.31-.17.7.02,1.01l.42.71c1.27,2.11,1.22,4.72-.09,6.77h-3.49l1.46-3.29c1.04-2.35.15-5.09-2.09-6.37l-1.48-.85,1.74-3.49h2.26c.69,0,1.32.31,1.75.85.42.55.57,1.24.4,1.91-.07.27-.02.56.14.8l.96,1.44h-1.13Zm-1-2c0,.55-.45,1-1,1s-1-.45-1-1,.45-1,1-1,1,.45,1,1Z"/>
</svg>