<?xml version="1.0" encoding="UTF-8"?>
<svg id="icons-ready-for-export" xmlns="http://www.w3.org/2000/svg" viewBox="0 0 24 24">
  <defs>
    <style>
      .cls-1 {
        fill: #43b8de;
      }

      .cls-1, .cls-2 {
        stroke-width: 0px;
      }

      .cls-2 {
        fill: #362d2d;
      }
    </style>
  </defs>
  <circle class="cls-2" cx="12" cy="11" r="2"/>
  <circle class="cls-2" cx="12" cy="17" r="1"/>
  <path class="cls-2" d="m20.71,11.29L12.71,3.29c-.39-.39-1.03-.39-1.42,0L3.29,11.29c-.39.39-.39,1.02,0,1.41.39.39,1.03.39,1.42,0l.5-.5.79,7.9c.06.51.49.9,1,.9h10c.51,0,.94-.39,1-.9l.79-7.9.5.5c.2.2.45.3.71.3s.51-.1.71-.3c.39-.39.39-1.02,0-1.41Zm-4.61,7.71H7.9l-.86-8.63,4.96-4.96,4.96,4.96-.86,8.63Z"/>
  <path class="cls-1" d="m12,5.41l-4.96,4.96.86,8.63h8.2l.86-8.63-4.96-4.96Zm0,12.59c-.55,0-1-.45-1-1s.45-1,1-1,1,.44,1,1-.45,1-1,1Zm0-5c-1.1,0-2-.9-2-2s.9-2,2-2,2,.89,2,2-.9,2-2,2Z"/>
</svg>