<?xml version="1.0" encoding="UTF-8"?>
<svg id="icons-ready-for-export" xmlns="http://www.w3.org/2000/svg" viewBox="0 0 24 24">
  <defs>
    <style>
      .cls-1 {
        stroke-width: 0px;
      }
    </style>
  </defs>
  <path class="cls-1" d="m20.71,11.29L12.71,3.29c-.39-.39-1.02-.39-1.41,0L3.3,11.29c-.39.39-.39,1.03,0,1.42.39.39,1.02.39,1.41,0l.51-.51.79,7.9c.05.51.48.9.99.9h10c.52,0,.95-.39,1-.9l.79-7.9.51.51c.19.19.45.29.7.29s.52-.1.71-.29c.39-.39.39-1.03,0-1.42Zm-9.71,5.71c0-.55.45-1,1-1s1,.45,1,1-.44,1-1,1-1-.45-1-1Zm1-4c-1.1,0-2-.89-2-2s.9-2,2-2,2,.9,2,2-.89,2-2,2Z"/>
</svg>