<?xml version="1.0" encoding="UTF-8"?>
<svg id="icons-ready-for-export-corrected" xmlns="http://www.w3.org/2000/svg" viewBox="0 0 24 24">
  <path d="M12,18c2.76,0,5-2.24,5-5s-2.24-5-5-5-5,2.24-5,5,2.24,5,5,5ZM12,10c1.65,0,3,1.35,3,3s-1.35,3-3,3-3-1.35-3-3,1.35-3,3-3ZM21,5h-5.28l-.77-2.32c-.14-.41-.52-.68-.95-.68h-4c-.43,0-.81.28-.95.68l-.77,2.32h-2.28c0-.55-.45-1-1-1h-2c-.55,0-1,.45-1,1v1s0,0,0,0v14c0,.55.45,1,1,1h18c.55,0,1-.45,1-1V6c0-.55-.45-1-1-1ZM10.72,4h2.56l.33,1h-3.23l.33-1ZM20,19H4V7h16v12Z"/>
</svg>