<?xml version="1.0" encoding="UTF-8"?>
<svg id="Layer_2" xmlns="http://www.w3.org/2000/svg" viewBox="0 0 246.82 55.84">
  <defs>
    <style>
      .cls-1 {
        fill: #f5f4f1;
      }

      .cls-2 {
        fill: #221b1b;
      }
    </style>
  </defs>
  <g id="_x30_5_polish_5">
    <g>
      <polygon class="cls-2" points="0 10.48 3 45.6 14.66 55.84 46.09 53.35 67.89 55.84 86.71 53.36 89.28 55.07 106.14 54.05 106.14 46.7 113.04 54.05 128.21 53.68 147.36 55.84 166.38 51.25 167.78 54.05 183.87 53.36 185.59 43.43 188.87 43.43 191.19 53.36 206.4 54.05 208.28 51.15 234.39 55.84 246.13 49.17 246.82 3.64 244.6 .99 227.06 2.99 226.15 12.2 222.36 12.15 219.97 2.74 217.08 1.05 203.79 2.02 200.44 .03 165.62 .87 165.03 4.63 161.37 .82 130.06 .82 126.68 4.23 126.09 .82 119.39 0 109.94 1.78 108.54 12.13 101.41 .88 85.98 .03 84.96 3.08 82.08 .97 51.21 .97 47.22 4.84 44.06 1.93 15.93 .03 0 10.48"/>
      <polygon class="cls-1" points="13.71 7.57 8.66 11.81 8.66 42.87 12.97 48.01 44.06 48.94 44.06 34.87 19.82 38.78 15.81 16.3 44.06 16.77 44.06 7.57 13.71 7.57"/>
      <polygon class="cls-1" points="91.79 48.94 89.06 6.58 99.03 7.14 112.52 32.32 114.78 7.14 123.26 6.58 125.03 48.04 115.24 48.44 100.13 29.81 101.08 48.94 91.79 48.94"/>
      <path class="cls-1" d="M203.23,48.94l-1.2-16.38-9.22-4.74,8.1-.48-.84-20.2-30.93.76,1.43,41.04h9.32l-.42-13.8,13.18.65,1.35,13.15h9.22ZM189.92,22.03l-10.44,2.47v-10.08l10.44,1.18v6.43Z"/>
      <polygon class="cls-1" points="206.4 7.14 207.98 29.76 230.78 30.56 230.78 40.16 209.83 40.16 212.06 48.45 235.59 49.17 241.56 44.15 241.56 9.71 239.41 7.14 230.78 7.14 230.67 20.03 218.79 20.03 217.17 7.14 206.4 7.14"/>
      <path class="cls-1" d="M79.84,7.14h-25.05l-4.19,5.5,1.12,36.3h10.71l-.64-14.68h11.08l-.64,14.68h10.71l1.12-36.3-4.19-5.5ZM61.77,25.5l1.68-9.6h7.72l1.68,9.6h-11.08Z"/>
      <path class="cls-1" d="M159.3,7.14h-25.05l-4.19,5.5,1.12,36.3h10.71l-.64-14.68h11.08l-.64,14.68h10.71l1.12-36.3-4.19-5.5ZM141.24,25.5l1.68-9.6h7.72l1.68,9.6h-11.08Z"/>
    </g>
  </g>
</svg>