<?xml version="1.0" encoding="UTF-8"?><svg id="icons-ready-for-export" xmlns="http://www.w3.org/2000/svg" width="24" height="24" viewBox="0 0 24 24"><path d="M17,3H7c-2.21,0-4,1.79-4,4v10c0,2.21,1.79,4,4,4h10c2.21,0,4-1.79,4-4V7c0-2.21-1.79-4-4-4Zm2,14c0,1.1-.9,2-2,2H7c-1.1,0-2-.9-2-2V7c0-1.1,.9-2,2-2h10c1.1,0,2,.9,2,2v10Zm-2.29-8.71c.39,.39,.39,1.02,0,1.41l-6,6c-.2,.2-.45,.29-.71,.29s-.51-.1-.71-.29l-2.08-2.08c-.39-.39-.39-1.02,0-1.41s1.02-.39,1.41,0l1.37,1.37,5.29-5.29c.39-.39,1.02-.39,1.41,0Z"/></svg>