<svg width="142" height="60" viewBox="0 0 142 60" fill="none" xmlns="http://www.w3.org/2000/svg">
<path d="M139.66 41.4105C139.257 41.4105 138.771 41.5765 138.201 41.8946C136.743 42.7383 134.854 43.7756 132.548 45.0204C130.242 46.2652 127.853 47.4962 125.38 48.7272C122.907 49.9581 120.699 50.9955 118.74 51.8254C118.462 51.8254 118.337 51.6317 118.337 51.2583C118.337 50.9955 118.685 50.4699 119.393 49.6954C120.101 48.9208 120.921 48.0771 121.88 47.1366C122.838 46.1961 123.644 45.4077 124.324 44.73C125.811 43.25 127.228 41.7009 128.561 40.1104C129.895 38.5198 130.645 37.2197 130.839 36.2238C130.923 35.8504 130.978 35.4908 131.006 35.145C131.034 34.813 131.048 34.4949 131.048 34.1906C131.048 32.8075 130.714 31.8393 130.047 31.2584C129.381 30.6775 128.436 30.3871 127.214 30.3871C125.727 30.3871 123.824 30.8158 121.518 31.6872C119.212 32.5585 117.059 33.6097 115.045 34.8545L114.962 34.896H114.92C114.92 34.896 114.878 34.8684 114.878 34.813C114.878 34.6747 114.962 34.4119 115.142 34.0247C115.323 33.6374 115.406 33.3884 115.406 33.2778C115.406 32.3372 114.767 31.618 113.475 31.1478C112.184 30.6775 110.864 30.4424 109.503 30.4424C108.141 30.4424 106.933 30.7467 105.947 31.3552C104.96 31.9638 104.46 32.9043 104.46 34.1768C104.46 34.8822 104.585 35.4631 104.849 35.9333C105.113 36.4036 105.433 36.8047 105.808 37.1228C104.641 39.4741 103.627 41.5488 102.779 43.3469C102.265 44.4257 101.793 45.4215 101.349 46.362C101.349 46.362 101.349 46.362 101.335 46.362C99.8901 47.2334 98.1676 48.1463 96.1673 49.1144C94.1531 50.1103 92.0695 50.9955 89.9025 51.77C87.7355 52.5446 85.7074 52.918 83.8321 52.918C81.4151 52.918 80.0677 52.0881 79.7621 50.4007C83.4571 49.0453 86.527 47.7037 88.9857 46.362C91.4444 45.0204 93.403 43.7065 94.8615 42.4063C96.3201 41.1339 97.3619 39.8752 97.9592 38.6443C98.5565 37.3995 98.8483 36.21 98.8483 35.0758C98.8483 33.1533 98.2926 31.6595 97.1814 30.5807C96.0701 29.5019 94.3893 28.9624 92.1389 28.9624C89.0134 28.9624 86.138 29.6125 83.4848 30.9265C80.8456 32.2404 78.5674 33.8863 76.6644 35.8919C74.7613 37.8974 73.3027 39.972 72.2887 42.1574C71.2747 44.3289 70.7607 46.2929 70.7607 48.0494C70.7607 48.4367 70.7885 48.8102 70.8163 49.1836C70.8024 49.1974 70.7746 49.2113 70.7607 49.2251C69.4549 50.1103 68.1631 50.871 66.8712 51.4796C65.5794 52.0881 64.3847 52.3924 63.2734 52.3924C62.7039 52.3924 62.2316 52.3233 61.8705 52.185C61.5093 52.0466 61.3148 51.7147 61.3148 51.1753L61.3565 51.0093V50.8433C61.5232 49.2804 62.0371 47.8281 62.8984 46.5142C63.7596 45.1864 64.7042 43.9139 65.7044 42.6691C66.7323 41.3967 67.6352 40.055 68.3853 38.6166C69.1493 37.1782 69.5244 35.6014 69.5244 33.8725C69.5244 32.033 68.8854 30.7605 67.6074 30.0689C66.3295 29.3636 64.8015 29.0178 63.0095 29.0178C61.0787 29.0178 59.3701 29.3636 57.8837 30.0689C56.3974 30.7743 55.05 31.6319 53.8554 32.6415C52.6607 33.6512 51.5495 34.6609 50.5215 35.6567C52.9386 31.6595 55.2445 27.4825 57.4392 23.1395C59.634 18.7965 61.8427 14.7164 64.0791 10.899C64.4542 10.3319 64.8015 9.7233 65.0932 9.05941C65.3849 8.39551 65.5377 7.77311 65.5377 7.17837C65.5377 6.52831 65.3015 5.98889 64.8431 5.53246C64.3847 5.08987 63.5513 4.86857 62.3566 4.86857C61.4121 4.86857 60.4536 5.14519 59.509 5.69844C58.5644 6.25168 57.9254 6.87409 57.592 7.57947L44.1595 33.8725C43.701 34.813 43.1454 35.9195 42.5064 37.1643C41.409 37.6484 40.1033 38.423 38.5614 39.5018C36.9778 40.6083 35.2414 41.8393 33.3523 43.1947C31.4631 44.5502 29.5322 45.8503 27.5319 47.1089C25.5316 48.3676 23.5869 49.4049 21.6699 50.2071C19.753 51.0093 17.9888 51.4242 16.3636 51.4242C13.9188 51.4242 12.1685 50.8295 11.1128 49.64C10.0571 48.4506 9.52922 46.8738 9.52922 44.8959C9.52922 42.7659 9.98762 40.4146 10.8905 37.8697C11.7934 35.3109 13.0159 32.7107 14.53 30.0689C16.0441 27.4272 17.7249 24.8546 19.5724 22.3512C21.4199 19.8477 23.2813 17.5656 25.1705 15.5047C27.0596 13.4439 28.8099 11.7427 30.4352 10.4149C32.0326 9.08707 33.5745 8.04973 35.0331 7.28902C36.4916 6.52831 37.8113 6.15487 38.9781 6.15487C40.6034 6.15487 41.4229 7.02623 41.4229 8.75512C41.4229 9.59882 41.159 10.567 40.6311 11.6735C40.1033 12.78 39.4782 13.8588 38.742 14.8962C38.0057 15.9335 37.3112 16.8049 36.6722 17.5102C36.2138 18.0773 35.8943 18.5752 35.7137 19.004C35.5331 19.4328 35.4498 19.8201 35.4498 20.1382C35.4498 21.1063 35.9082 21.7149 36.8389 21.9639C37.7557 22.2128 38.4919 22.3235 39.0337 22.3235C40.5478 22.3235 41.9647 21.7564 43.2843 20.6361C44.604 19.5158 45.7291 18.105 46.6876 16.4038C47.6044 14.7578 48.3267 13.0981 48.8268 11.4384C49.3269 9.77863 49.5769 8.39551 49.5769 7.28902C49.5769 4.59194 48.7435 2.69708 47.0766 1.61825C45.4096 0.539415 43.4232 0 41.1173 0C38.8114 0 36.4638 0.428766 34.0746 1.30013C31.6853 2.17149 29.31 3.34714 26.9485 4.86857C24.4204 6.48681 21.8922 8.50616 19.3363 10.9266C16.7803 13.3471 14.3494 16.0303 12.0296 18.9902C9.7098 21.95 7.65393 25.0344 5.84811 28.2294C4.04228 31.4244 2.6254 34.6471 1.56968 37.8697C0.527858 41.0924 0 44.1906 0 47.1228C0 50.6912 1.09739 53.6234 3.29216 55.9194C5.48694 58.2153 9.11249 59.3633 14.1549 59.3633C16.3219 59.3633 18.6973 58.9761 21.2532 58.1877C23.8092 57.3993 26.4207 56.3205 29.0461 54.9235C31.352 53.7064 33.5467 52.3094 35.6721 50.7465C35.4498 51.1891 35.2414 51.6317 35.0331 52.0605C34.1163 53.9277 33.644 55.4215 33.644 56.5556C33.644 57.3993 33.9079 58.0909 34.4219 58.6441C34.9358 59.1974 35.6721 59.474 36.6166 59.474C37.4779 59.474 38.3252 59.0729 39.1448 58.2568C39.9644 57.4408 40.7006 56.445 41.3813 55.2555C42.1175 53.983 42.7842 52.7382 43.3816 51.5211C43.9789 50.3039 44.5484 49.2804 45.0901 48.4367C46.2292 46.6525 47.4794 44.813 48.8546 42.9043C50.2298 40.9956 51.7578 39.3911 53.4525 38.0772C55.1472 36.7632 57.0503 36.1132 59.1756 36.1132C60.0646 36.1132 60.523 36.5696 60.523 37.4963C60.523 37.9527 60.4397 38.3815 60.2591 38.7687C60.0785 39.156 59.8285 39.5848 59.509 40.0412C58.8561 41.1477 57.9949 42.434 56.9253 43.8863C55.8557 45.3385 54.8972 46.9291 54.0359 48.6304C53.1747 50.3316 52.758 52.1158 52.758 53.983C52.758 55.8502 53.3414 57.261 54.5082 58.1324C55.6751 59.0037 57.217 59.4463 59.1478 59.4463C61.1759 59.4463 63.2457 58.9761 65.3571 58.0217C67.4546 57.0812 69.5522 55.8502 71.6219 54.3288C71.7886 54.2043 71.9553 54.066 72.122 53.9415C72.9138 55.5321 74.0112 56.8322 75.442 57.8281C76.97 58.8931 78.8314 59.4325 80.9984 59.4325C83.7904 59.4325 86.652 58.9069 89.583 57.8557C92.5001 56.8046 95.1394 55.6289 97.5147 54.315C97.4314 54.4671 97.348 54.6331 97.2786 54.7714C96.9869 55.3108 96.7785 55.8087 96.6952 56.2513C96.6118 56.6939 96.5562 57.0674 96.5562 57.3716C96.5562 58.7548 97.2369 59.4325 98.5843 59.4325C99.7234 59.4325 100.974 58.9622 102.349 58.0079C103.724 57.0535 104.696 55.8502 105.294 54.3565C105.835 53.1946 106.502 51.7424 107.308 49.9858C108.114 48.2293 108.919 46.5142 109.753 44.813C110.586 43.1256 111.267 41.8116 111.809 40.8572C112.211 40.0965 112.975 39.3911 114.087 38.7134C115.198 38.0357 116.323 37.4963 117.462 37.0675C118.601 36.6526 119.393 36.4451 119.824 36.4451C120.115 36.4451 120.268 36.6526 120.268 37.0537C120.268 37.8697 119.865 38.8379 119.074 39.972C118.282 41.1062 117.351 42.3372 116.323 43.665C115.295 45.0204 114.295 46.5004 113.35 48.1186C112.406 49.7368 111.781 51.4104 111.475 53.1393C111.447 53.2223 111.433 53.3883 111.433 53.6234C111.433 55.0342 111.906 56.1822 112.836 57.0674C113.767 57.9526 115.17 58.409 117.045 58.409C118.24 58.409 119.726 58.0217 121.504 57.2333C123.283 56.445 125.144 55.5044 127.103 54.3979C129.089 53.2638 131.089 52.0605 133.103 50.7742C135.132 49.4879 136.715 48.4782 137.882 47.759C139.132 46.9015 140.021 46.0578 140.549 45.2694C141.077 44.4672 141.341 43.7618 141.341 43.1394C141.341 41.9499 140.771 41.3552 139.632 41.3552L139.66 41.4105ZM82.6097 38.9762C83.4709 37.7037 84.5406 36.6526 85.8046 35.795C87.0687 34.9375 88.4439 34.5226 89.9303 34.5226H90.2914L90.6526 34.5641C90.9721 34.6194 91.2638 34.7715 91.5277 35.0067C91.7916 35.2418 91.9167 35.5737 91.9167 35.9748C91.9167 36.4313 91.6805 36.9983 91.2221 37.6761C90.8193 38.2985 89.9719 39.0177 88.694 39.8199C87.7494 40.387 86.3603 41.286 84.5267 42.517C83.0681 43.499 81.6373 44.3427 80.2205 45.1311C80.1649 44.6885 80.0399 44.3012 79.7898 44.0246C79.9704 43.6096 80.151 43.1809 80.3733 42.7106C80.9289 41.5488 81.6651 40.304 82.5958 38.9762H82.6097Z" fill="#C15F3C"/>
</svg>
