<?xml version="1.0" encoding="UTF-8"?><svg id="icons-ready-for-export" xmlns="http://www.w3.org/2000/svg" width="24" height="24" viewBox="0 0 24 24"><path d="M12,3C7.03,3,3,7.03,3,12s4.03,9,9,9,9-4.03,9-9S16.97,3,12,3Zm4.95,12.54c.39,.39,.39,1.02,0,1.41-.2,.2-.45,.29-.71,.29s-.51-.1-.71-.29l-3.54-3.54-3.54,3.54c-.2,.2-.45,.29-.71,.29s-.51-.1-.71-.29c-.39-.39-.39-1.02,0-1.41l3.54-3.54-3.54-3.54c-.39-.39-.39-1.02,0-1.41s1.02-.39,1.41,0l3.54,3.54,3.54-3.54c.39-.39,1.02-.39,1.41,0s.39,1.02,0,1.41l-3.54,3.54,3.54,3.54Z"/></svg>