<?xml version="1.0" encoding="UTF-8"?><svg id="icons-ready-for-export" xmlns="http://www.w3.org/2000/svg" width="24" height="24" viewBox="0 0 24 24"><path d="M20,3H4c-.55,0-1,.45-1,1V20c0,.55,.45,1,1,1H20c.55,0,1-.45,1-1V4c0-.55-.45-1-1-1Zm-3.05,12.54c.39,.39,.39,1.02,0,1.41-.2,.2-.45,.29-.71,.29s-.51-.1-.71-.29l-3.54-3.54-3.54,3.54c-.2,.2-.45,.29-.71,.29s-.51-.1-.71-.29c-.39-.39-.39-1.02,0-1.41l3.54-3.54-3.54-3.54c-.39-.39-.39-1.02,0-1.41s1.02-.39,1.41,0l3.54,3.54,3.54-3.54c.39-.39,1.02-.39,1.41,0s.39,1.02,0,1.41l-3.54,3.54,3.54,3.54Z"/></svg>