<?xml version="1.0" encoding="UTF-8"?><svg id="icons-ready-for-export" xmlns="http://www.w3.org/2000/svg" width="24" height="24" viewBox="0 0 24 24"><path d="M20,3H4c-.55,0-1,.45-1,1V20c0,.55,.45,1,1,1H20c.55,0,1-.45,1-1V4c0-.55-.45-1-1-1Zm-1,16H5V5h14v14ZM6,8c0-.55,.45-1,1-1h1c.55,0,1,.45,1,1s-.45,1-1,1h-1c-.55,0-1-.45-1-1Zm4,0c0-.55,.45-1,1-1h6c.55,0,1,.45,1,1s-.45,1-1,1h-6c-.55,0-1-.45-1-1Zm-4,4c0-.55,.45-1,1-1h1c.55,0,1,.45,1,1s-.45,1-1,1h-1c-.55,0-1-.45-1-1Zm4,0c0-.55,.45-1,1-1h6c.55,0,1,.45,1,1s-.45,1-1,1h-6c-.55,0-1-.45-1-1Zm-4,4c0-.55,.45-1,1-1h1c.55,0,1,.45,1,1s-.45,1-1,1h-1c-.55,0-1-.45-1-1Zm4,0c0-.55,.45-1,1-1h6c.55,0,1,.45,1,1s-.45,1-1,1h-6c-.55,0-1-.45-1-1Z"/></svg>