<?xml version="1.0" encoding="UTF-8"?>
<svg id="icons-ready-for-export" xmlns="http://www.w3.org/2000/svg" viewBox="0 0 24 24">
  <defs>
    <style>
      .cls-1 {
        fill: #a8e4ab;
      }

      .cls-1, .cls-2, .cls-3 {
        stroke-width: 0px;
      }

      .cls-2 {
        fill: #362d2d;
      }

      .cls-3 {
        fill: #5acc5f;
      }
    </style>
  </defs>
  <path class="cls-2" d="m20,3H4c-.55,0-1,.45-1,1v16c0,.55.45,1,1,1h16c.56,0,1-.45,1-1V4c0-.55-.44-1-1-1ZM5,19v-.58l5-5.01,5.59,5.59H5Zm14,0h-.58l-7.71-7.71c-.39-.39-1.02-.39-1.41,0l-4.3,4.3V5h14v14Z"/>
  <path class="cls-3" d="m5,5v10.59l4.3-4.3c.39-.39,1.02-.39,1.41,0l7.71,7.71h.58V5H5Zm10.5,5c-.83,0-1.5-.67-1.5-1.5s.67-1.5,1.5-1.5,1.5.67,1.5,1.5-.67,1.5-1.5,1.5Z"/>
  <polygon class="cls-1" points="15.59 19 5 19 5 18.42 10 13.41 15.59 19"/>
  <circle class="cls-2" cx="15.5" cy="8.5" r="1.5"/>
</svg>