<?xml version="1.0" encoding="UTF-8"?><svg id="icons-ready-for-export" xmlns="http://www.w3.org/2000/svg" width="24" height="24" viewBox="0 0 24 24"><path d="M22,5v2H2v-2c0-.55,.45-1,1-1H21c.55,0,1,.45,1,1ZM2,9H22v10c0,.55-.45,1-1,1H3c-.55,0-1-.45-1-1V9Zm14,3c0,.55,.45,1,1,1s1-.45,1-1-.45-1-1-1-1,.45-1,1Zm0,4c0,.55,.45,1,1,1s1-.45,1-1-.45-1-1-1-1,.45-1,1Zm-5-4c0,.55,.45,1,1,1s1-.45,1-1-.45-1-1-1-1,.45-1,1Zm0,4c0,.55,.45,1,1,1s1-.45,1-1-.45-1-1-1-1,.45-1,1Zm-5-4c0,.55,.45,1,1,1s1-.45,1-1-.45-1-1-1-1,.45-1,1Zm0,4c0,.55,.45,1,1,1s1-.45,1-1-.45-1-1-1-1,.45-1,1Z"/></svg>