<?xml version="1.0" encoding="UTF-8"?><svg id="icons-ready-for-export" xmlns="http://www.w3.org/2000/svg" width="24" height="24" viewBox="0 0 24 24"><path d="M5.96,15.96c0-.55,.45-1,1-1s1,.45,1,1-.45,1-1,1-1-.45-1-1Zm6,1c.55,0,1-.45,1-1s-.45-1-1-1-1,.45-1,1,.45,1,1,1Zm5,0c.55,0,1-.45,1-1s-.45-1-1-1-1,.45-1,1,.45,1,1,1ZM6.96,12.96c.55,0,1-.45,1-1s-.45-1-1-1-1,.45-1,1,.45,1,1,1Zm5,0c.55,0,1-.45,1-1s-.45-1-1-1-1,.45-1,1,.45,1,1,1Zm5,0c.55,0,1-.45,1-1s-.45-1-1-1-1,.45-1,1,.45,1,1,1Zm5.04-7.96v14c0,.55-.45,1-1,1H3c-.55,0-1-.45-1-1V5c0-.55,.45-1,1-1H21c.55,0,1,.45,1,1Zm-2,5.04H4v7.96H20v-7.96Zm0-4.04H4v2.04H20v-2.04Z"/></svg>