<?xml version="1.0" encoding="UTF-8"?>
<svg id="icons-ready-for-export" xmlns="http://www.w3.org/2000/svg" viewBox="0 0 24 24">
  <path d="M20,6h-3v-2c0-.55-.44-1-1-1H8c-.55,0-1,.45-1,1v2h-3c-.55,0-1,.45-1,1s.45,1,1,1h1.15l1.87,12.15c.07.49.49.85.98.85h8c.5,0,.92-.36.99-.85l1.87-12.15h1.14c.56,0,1-.45,1-1s-.44-1-1-1ZM14.13,12.71c.39.39.39,1.02,0,1.41-.4.39-1.03.39-1.42,0l-.71-.71-.7.71c-.39.39-1.03.39-1.42,0-.39-.39-.39-1.02,0-1.41l.71-.71-.71-.71c-.39-.39-.39-1.02,0-1.41.39-.39,1.03-.39,1.42,0l.7.71.71-.71c.39-.39,1.02-.39,1.42,0,.39.39.39,1.02,0,1.41l-.71.71.71.71ZM9,5h6v1h-6v-1Z"/>
</svg>