<?xml version="1.0" encoding="UTF-8"?>
<svg id="icons-ready-for-export" xmlns="http://www.w3.org/2000/svg" viewBox="0 0 24 24">
  <path d="M20,6h-3v-2c0-.55-.45-1-1-1H8c-.55,0-1,.45-1,1v2h-3c-.55,0-1,.45-1,1s.45,1,1,1h1.14l1.87,12.15c.08.49.49.85.99.85h8c.49,0,.91-.36.99-.85l1.87-12.15h1.14c.55,0,1-.45,1-1s-.45-1-1-1ZM9,5h6v1h-6v-1ZM15.14,19h-6.28l-1.69-11h9.67l-1.69,11ZM9.88,12.71l.71-.71-.71-.71c-.39-.39-.39-1.02,0-1.41.39-.39,1.02-.39,1.41,0l.71.71.71-.71c.39-.39,1.02-.39,1.41,0,.39.39.39,1.02,0,1.41l-.71.71.71.71c.39.39.39,1.02,0,1.41-.39.39-1.02.39-1.41,0l-.71-.71-.71.71c-.39.39-1.02.39-1.41,0-.39-.39-.39-1.02,0-1.41Z"/>
</svg>