<?xml version="1.0" encoding="UTF-8"?><svg id="icons-ready-for-export" xmlns="http://www.w3.org/2000/svg" width="24" height="24" viewBox="0 0 24 24"><path d="M21.27,5.79l-5.98-1.71c-.09-.03-.18-.04-.27-.04-.11,0-.21,.02-.32,.05l-5.41,1.8c-.1,.03-.21,.05-.32,.05-.09,0-.18-.01-.27-.04l-5.43-1.55c-.09-.03-.19-.04-.28-.04-.53,0-1,.43-1,1v11.92c0,.45,.3,.84,.73,.96l5.98,1.71c.09,.03,.18,.04,.27,.04,.11,0,.21-.02,.32-.05l5.41-1.8c.1-.03,.21-.05,.32-.05,.09,0,.18,.01,.27,.04l5.43,1.55c.09,.03,.19,.04,.28,.04,.53,0,1-.43,1-1V6.75c0-.45-.3-.84-.73-.96Zm-11.27,1.98l4-1.33v9.78l-4,1.33V7.77Zm-6-1.12l4,1.14v9.84l-4-1.14V6.65Zm16,10.7l-4-1.14V6.37l4,1.14v9.84Z"/></svg>