<?xml version="1.0" encoding="UTF-8"?><svg id="icons-ready-for-export" xmlns="http://www.w3.org/2000/svg" width="24" height="24" viewBox="0 0 24 24"><path d="M21.27,5.76l-5.97-1.72c-.09-.03-.18-.04-.28-.04s-.21,.02-.31,.05l-5.42,1.82c-.1,.03-.21,.05-.31,.05s-.19-.01-.28-.04l-5.43-1.56c-.09-.03-.18-.04-.27-.04-.54,0-1,.44-1,1.01v11.99c0,.45,.3,.84,.73,.96l5.97,1.72c.09,.03,.18,.04,.28,.04s.21-.02,.31-.05l5.42-1.82c.1-.03,.21-.05,.31-.05s.19,.01,.28,.04l5.43,1.56c.09,.03,.18,.04,.27,.04,.54,0,1-.44,1-1.01V6.72c0-.45-.3-.84-.73-.96Zm-13.27,11.91l-4-1.15v-2.19c.34-.43,1.27-1.43,2.73-1.74,.41-.08,.83-.1,1.27-.06v5.14Zm0-7.14c-.58-.04-1.15-.01-1.71,.11-.92,.2-1.68,.59-2.29,1.01V6.62l4,1.15v2.76Zm6,5.72l-4,1.34v-4.53c.49,.21,.98,.48,1.49,.82,.85,.56,1.69,.95,2.51,1.2v1.17Zm0-3.28c-.46-.19-.92-.44-1.4-.76-.06-.04-.12-.07-.17-.1,.55-.22,1.08-.51,1.57-.88v1.74Zm0-5.12c-.6,2.15-2.74,2.68-4,2.79v-2.89l4-1.34v1.44Zm6,9.53l-4-1.15v-.83c.49,0,.98-.07,1.46-.19,1.02-.27,1.87-.78,2.54-1.34v3.51Zm0-6.5c-.39,.6-1.44,1.98-3.06,2.4-.31,.08-.62,.11-.94,.12V6.33l4,1.15v3.4Z"/></svg>