<?xml version="1.0" encoding="UTF-8"?><svg id="icons-ready-for-export" xmlns="http://www.w3.org/2000/svg" width="24" height="24" viewBox="0 0 24 24"><path d="M22,6.72v11.99c0,.57-.46,1.01-1,1.01-.09,0-.18-.01-.28-.04l-5.43-1.56c-.09-.03-.18-.04-.27-.04-.11,0-.21,.02-.32,.05l-5.41,1.81c-.1,.03-.21,.05-.32,.05-.09,0-.18-.01-.27-.04l-5.98-1.72c-.43-.12-.73-.52-.73-.97V5.29c0-.57,.46-1.01,1-1.01,.09,0,.18,.01,.28,.04l5.43,1.56c.09,.03,.18,.04,.27,.04,.11,0,.21-.02,.32-.05l5.41-1.81c.1-.03,.21-.05,.32-.05,.09,0,.18,.01,.27,.04l5.98,1.72c.43,.12,.73,.52,.73,.97Z"/></svg>