<?xml version="1.0" encoding="UTF-8"?><svg id="icons-ready-for-export" xmlns="http://www.w3.org/2000/svg" width="24" height="24" viewBox="0 0 24 24"><path d="M10,5.63l4-1.34v3.56c-.6,2.15-2.74,2.67-4,2.79V5.63Zm2.62,6.6c.47,.34,.93,.59,1.38,.78v-1.77c-.49,.37-1.04,.64-1.59,.85,.07,.05,.14,.09,.21,.14Zm-2.62,.79v6.69l4-1.34v-3.23c-.84-.25-1.69-.67-2.54-1.28-.5-.35-.98-.63-1.46-.84Zm11.27-7.26l-5.27-1.52V13.41c.32-.01,.63-.06,.95-.15,2.56-.75,4.45-4.05,5.05-5.46v-1.07c0-.45-.3-.84-.73-.97Zm-3.76,9.42c-.5,.15-1,.23-1.51,.24v2.9l4.73,1.36c.09,.03,.19,.04,.28,.04,.53,0,1-.44,1-1.01v-6.99c-1.07,1.43-2.56,2.89-4.49,3.45ZM3,4.28c-.53,0-1,.44-1,1.01V13.62c1.01-1.19,2.41-2.4,4.19-2.88,.6-.16,1.2-.23,1.81-.22V5.68l-4.73-1.36c-.09-.03-.19-.04-.28-.04Zm-1,12.95v.05c0,.45,.3,.84,.73,.97l5.27,1.52v-7.23c-.43-.01-.86,.03-1.27,.14-2.65,.72-4.34,3.78-4.73,4.56Z"/></svg>