<?xml version="1.0" encoding="UTF-8"?>
<svg id="icons-ready-for-export" xmlns="http://www.w3.org/2000/svg" viewBox="0 0 24 24">
  <path d="M15,12c0,1.66-1.34,3-3,3s-3-1.34-3-3,1.34-3,3-3,3,1.34,3,3ZM8.38,15.08c-.12-.05-.25-.08-.38-.08H4c-.55,0-1,.45-1,1s.45,1,1,1h1.59l-2.29,2.29c-.39.39-.39,1.02,0,1.41.2.2.45.29.71.29s.51-.1.71-.29l2.29-2.29v1.59c0,.55.45,1,1,1s1-.45,1-1v-4c0-.13-.03-.26-.08-.38-.1-.24-.3-.44-.54-.54ZM21,16c0-.55-.45-1-1-1h-4c-.13,0-.26.03-.38.08-.24.1-.44.3-.54.54-.05.12-.08.25-.08.38v4c0,.55.45,1,1,1s1-.45,1-1v-1.59l2.29,2.29c.2.2.45.29.71.29s.51-.1.71-.29c.39-.39.39-1.02,0-1.41l-2.29-2.29h1.59c.55,0,1-.45,1-1ZM8,3c-.55,0-1,.45-1,1v1.59l-2.29-2.29c-.39-.39-1.02-.39-1.41,0s-.39,1.02,0,1.41l2.29,2.29h-1.59c-.55,0-1,.45-1,1s.45,1,1,1h4c.13,0,.26-.03.38-.08.24-.1.44-.3.54-.54.05-.12.08-.25.08-.38v-4c0-.55-.45-1-1-1ZM20,7h-1.59l2.29-2.29c.39-.39.39-1.02,0-1.41s-1.02-.39-1.41,0l-2.29,2.29v-1.59c0-.55-.45-1-1-1s-1,.45-1,1v4c0,.13.03.26.08.38.1.24.3.44.54.54.12.05.25.08.38.08h4c.55,0,1-.45,1-1s-.45-1-1-1Z"/>
</svg>