<?xml version="1.0" encoding="UTF-8"?><svg id="icons-ready-for-export" xmlns="http://www.w3.org/2000/svg" width="24" height="24" viewBox="0 0 24 24"><path d="M7.77,6.36c.74,0,1.44,.29,1.97,.81l.84,.84,1.41,1.41,1.41-1.41,.85-.84c.53-.52,1.23-.81,1.97-.81s1.44,.29,1.97,.81c.52,.52,.81,1.21,.81,1.95,0,.74-.29,1.43-.81,1.95l-.84,.84-5.35,5.33-5.34-5.33-.84-.84c-.52-.52-.81-1.21-.81-1.95,0-.74,.29-1.43,.81-1.95,.53-.52,1.22-.81,1.96-.81h0m0-2c-1.22,0-2.44,.46-3.38,1.39h0c-1.86,1.86-1.86,4.88,0,6.73l.84,.84,6.04,6.03c.2,.19,.45,.29,.71,.29s.51-.1,.71-.29l6.06-6.03,.84-.84c1.86-1.85,1.86-4.87,0-6.72h0c-.93-.93-2.16-1.4-3.38-1.4s-2.45,.47-3.38,1.4l-.85,.84-.84-.84c-.93-.93-2.16-1.4-3.38-1.4h0Z"/></svg>