<?xml version="1.0" encoding="UTF-8"?>
<svg id="icons-ready-for-export" xmlns="http://www.w3.org/2000/svg" viewBox="0 0 24 24">
  <defs>
    <style>
      .cls-1 {
        fill: #362d2d;
      }

      .cls-2 {
        fill: #362d2d;
      }

      .cls-3 {
        fill: #ead541;
      }
    </style>
  </defs>
  <g>
    <g>
      <path class="cls-3" d="M21,11l-2.05.96,1.05,2.04s-1,4-4,5l-1-1s-4,3-7,.92c-3-2.92,1.8-5.82,1.8-5.82l-.8-1.61c1-2.53,3.36-2.85,3.36-2.85l1.64.36v-3c2-3,6-2,6-2,0,0,3,2,1,7Z"/>
      <path class="cls-2" d="M10.43,20.66c-.99,0-2.03-.25-2.99-.92-.05-.03-.09-.07-.13-.11-1.21-1.18-1.36-2.36-1.27-3.15.19-1.68,1.58-3.01,2.49-3.71l-.42-.84c-.13-.25-.14-.55-.03-.81,1.2-3.04,4.04-3.46,4.16-3.47.12-.01.24-.01.35.01l.43.09v-1.76c0-.2.06-.39.17-.55,2.36-3.55,6.88-2.46,7.07-2.42.11.03.22.07.31.14.15.1,3.65,2.52,1.37,8.2-.09.24-.27.43-.5.53l-1.11.52.57,1.12c.11.22.14.46.08.7-.05.19-1.17,4.55-4.65,5.71-.36.12-.76.03-1.02-.24l-.43-.43c-.93.55-2.62,1.38-4.44,1.38ZM8.64,18.14c2.36,1.55,5.73-.92,5.76-.94.4-.3.96-.26,1.31.09l.52.52c1.61-.87,2.43-2.91,2.7-3.72l-.86-1.68c-.12-.24-.15-.52-.06-.78.09-.26.28-.47.52-.58l1.68-.79c1.2-3.34-.19-4.93-.65-5.34-.71-.13-3.15-.41-4.56,1.39v2.68c0,.3-.14.59-.37.78-.24.19-.55.26-.84.2l-1.44-.32c-.4.1-1.56.5-2.24,1.81l.59,1.18c.23.47.07,1.03-.38,1.3-.59.36-2.16,1.56-2.29,2.76-.05.48.15.95.62,1.43ZM21,11h0,0Z"/>
    </g>
    <path class="cls-2" d="M5.05,21.96c-.34,0-.67-.17-.86-.49-.28-.47-.13-1.09.34-1.37.1-.06,9.69-5.88,12.53-13.45.19-.52.77-.78,1.29-.59.52.19.78.77.59,1.29-3.09,8.23-12.96,14.21-13.38,14.46-.16.1-.34.14-.51.14Z"/>
  </g>
  <path class="cls-1" d="M9,4.96h-2v-2c0-.55-.45-1-1-1s-1,.45-1,1v2h-2c-.55,0-1,.45-1,1s.45,1,1,1h2v2c0,.55.45,1,1,1s1-.45,1-1v-2h2c.55,0,1-.45,1-1s-.45-1-1-1Z"/>
</svg>