<?xml version="1.0" encoding="UTF-8"?>
<svg id="icons-ready-for-export" xmlns="http://www.w3.org/2000/svg" viewBox="0 0 24 24">
  <defs>
    <style>
      .cls-1 {
        fill: #362d2d;
      }

      .cls-1, .cls-2 {
        stroke-width: 0px;
      }

      .cls-2 {
        fill: #ead541;
      }
    </style>
  </defs>
  <path class="cls-2" d="m20,10l-2.05.96,1.05,2.04s-1,4-4,5l-1-1s-4,3-7,.92c-3-2.92,1.8-5.82,1.8-5.82l-.8-1.61c1-2.53,3.36-2.85,3.36-2.85l1.64.36v-3c2-3,6-2,6-2,0,0,3,2,1,7Z"/>
  <path class="cls-1" d="m19.56,2.17c-.1-.06-.2-.11-.31-.14-.19-.05-4.71-1.13-7.07,2.42-.11.16-.17.36-.17.55v1.76l-.42-.09c-.12-.03-.23-.03-.35-.01-.12.02-2.95.43-4.16,3.47-.1.26-.09.56.03.81l.42.84c-.91.7-2.29,2.03-2.49,3.71-.07.58,0,1.38.53,2.24-1.19.86-2.01,1.36-2.04,1.37-.47.28-.63.9-.34,1.37.19.31.52.49.86.49.17,0,.35-.05.51-.14.13-.08,1.12-.68,2.52-1.7.77.39,1.57.54,2.35.54,1.82,0,3.51-.83,4.44-1.38l.43.43c.27.27.66.36,1.02.24,3.48-1.16,4.61-5.52,4.65-5.71.06-.24.03-.48-.08-.7l-.58-1.12,1.11-.52c.23-.11.41-.3.5-.53,2.28-5.69-1.22-8.1-1.37-8.2Zm-.35,7.1l-1.68.79c-.25.12-.43.33-.52.58-.09.26-.07.54.06.78l.87,1.68c-.27.81-1.09,2.85-2.7,3.72l-.52-.52c-.35-.35-.91-.39-1.31-.09-.03.02-2.29,1.68-4.4,1.43,3.17-2.58,7.17-6.56,8.94-11.28.19-.52-.07-1.09-.58-1.29-.52-.19-1.09.07-1.29.58-1.7,4.54-5.83,8.44-8.89,10.86-.13-.26-.18-.52-.15-.79.14-1.2,1.7-2.4,2.3-2.76.45-.27.61-.83.38-1.3l-.59-1.18c.68-1.31,1.84-1.71,2.24-1.81l1.43.32c.3.06.61,0,.84-.2.24-.19.37-.48.37-.78v-2.68c1.41-1.81,3.85-1.52,4.56-1.39.45.41,1.84,1.99.65,5.34Z"/>
</svg>