<?xml version="1.0" encoding="UTF-8"?>
<svg id="icons-ready-for-export" xmlns="http://www.w3.org/2000/svg" viewBox="0 0 24 24">
  <defs>
    <style>
      .cls-1 {
        fill: #362d2d;
        stroke-width: 0px;
      }
    </style>
  </defs>
  <path class="cls-1" d="m19.55,2.17c-.1-.06-.2-.11-.31-.14-.19-.05-4.71-1.13-7.07,2.42-.11.16-.17.36-.17.55v1.76l-.43-.09c-.11-.02-.23-.03-.35-.01-.12.02-2.96.43-4.16,3.47-.11.26-.09.56.04.82l.42.83c-.91.7-2.3,2.04-2.49,3.72-.07.58,0,1.38.53,2.24-1.19.86-2.01,1.36-2.03,1.37-.47.28-.63.9-.34,1.37.19.31.52.49.86.49.17,0,.35-.05.51-.14.13-.08,1.12-.68,2.52-1.7.77.39,1.57.54,2.35.54,1.82,0,3.51-.83,4.44-1.38l.43.43c.27.27.66.36,1.02.24,3.48-1.16,4.61-5.52,4.65-5.71.06-.23.03-.48-.08-.7l-.58-1.12,1.11-.52c.23-.11.41-.3.51-.54,2.28-5.69-1.22-8.1-1.37-8.2Zm-.35,7.1l-1.68.78c-.25.12-.44.33-.52.58s-.07.54.06.78l.86,1.68c-.27.81-1.09,2.85-2.7,3.72l-.52-.52c-.35-.35-.91-.39-1.31-.09-.03.02-2.28,1.68-4.4,1.43,3.17-2.58,7.17-6.56,8.94-11.28.19-.52-.07-1.09-.58-1.29-.52-.19-1.09.07-1.29.58-1.7,4.54-5.83,8.44-8.89,10.86-.13-.26-.18-.52-.15-.79.14-1.2,1.71-2.41,2.3-2.77.45-.27.61-.84.38-1.3l-.59-1.18c.68-1.31,1.84-1.7,2.24-1.8l1.44.32c.3.07.6,0,.84-.2.24-.19.37-.48.37-.78v-2.68c1.41-1.81,3.85-1.52,4.56-1.39.45.41,1.84,1.99.65,5.33Z"/>
</svg>