<?xml version="1.0" encoding="UTF-8"?>
<svg id="icons-ready-for-export" xmlns="http://www.w3.org/2000/svg" viewBox="0 0 24 24">
  <path d="M21,4v6c0,.55-.45,1-1,1s-1-.45-1-1v-5h-5c-.55,0-1-.45-1-1s.45-1,1-1h6c.55,0,1,.45,1,1ZM4,11c.55,0,1-.45,1-1v-5h5c.55,0,1-.45,1-1s-.45-1-1-1H4c-.55,0-1,.45-1,1v6c0,.55.45,1,1,1ZM20,13c-.55,0-1,.45-1,1v5h-5c-.55,0-1,.45-1,1s.45,1,1,1h6c.55,0,1-.45,1-1v-6c0-.55-.45-1-1-1ZM10,19h-5v-5c0-.55-.45-1-1-1s-1,.45-1,1v6c0,.55.45,1,1,1h6c.55,0,1-.45,1-1s-.45-1-1-1ZM14,12c0-1.1-.9-2-2-2s-2,.9-2,2,.9,2,2,2,2-.9,2-2Z"/>
</svg>