<?xml version="1.0" encoding="UTF-8"?>
<svg id="icons-ready-for-export" xmlns="http://www.w3.org/2000/svg" viewBox="0 0 24 24">
  <path d="M11,15.86v4.14c0,.55-.45,1-1,1h-6c-.55,0-1-.45-1-1v-6c0-.55.45-1,1-1h4.14c.36,1.4,1.46,2.49,2.86,2.86ZM4,11h4.14c.36-1.4,1.46-2.49,2.86-2.86V4c0-.55-.45-1-1-1h-6c-.55,0-1,.45-1,1v6c0,.55.45,1,1,1ZM20,3h-6c-.55,0-1,.45-1,1v4.14c1.4.36,2.49,1.46,2.86,2.86h4.14c.55,0,1-.45,1-1V4c0-.55-.45-1-1-1ZM20,13h-4.14c-.36,1.4-1.46,2.49-2.86,2.86v4.14c0,.55.45,1,1,1h6c.55,0,1-.45,1-1v-6c0-.55-.45-1-1-1ZM14,12c0-1.1-.9-2-2-2s-2,.9-2,2,.9,2,2,2,2-.9,2-2Z"/>
</svg>