<?xml version="1.0" encoding="UTF-8"?>
<svg id="icons-ready-for-export" xmlns="http://www.w3.org/2000/svg" viewBox="0 0 24 24">
  <defs>
    <style>
      .cls-1 {
        fill: #f4e99d;
      }

      .cls-1, .cls-2, .cls-3 {
        stroke-width: 0px;
      }

      .cls-2 {
        fill: #362d2d;
      }

      .cls-3 {
        fill: #ead541;
      }
    </style>
  </defs>
  <path class="cls-2" d="m19.45,3.11c-.34-.17-.75-.14-1.05.09l-3.2,2.4-2.4-3.2c-.37-.5-1.22-.5-1.6,0l-2.4,3.2-3.2-2.4c-.3-.23-.71-.26-1.04-.09-.34.17-.56.51-.56.89v17c0,.56.45,1,1,1h14c.56,0,1-.44,1-1V4c0-.38-.21-.72-.55-.89Zm-1.45,16.89H6v-8h12v8Zm0-10H6v-4l2.4,1.8c.45.34,1.07.25,1.4-.2l2.2-2.93,2.2,2.93c.33.45.96.53,1.4.2l2.4-1.8v4Z"/>
  <path class="cls-1" d="m6,12v8h12v-8H6Zm6,5h-1v1c0,.56-.45,1-1,1s-1-.44-1-1v-1h-1c-.55,0-1-.44-1-1s.45-1,1-1h1v-1c0-.55.45-1,1-1s1,.45,1,1v1h1c.55,0,1,.45,1,1s-.45,1-1,1Zm3,1.5c-.55,0-1-.44-1-1s.45-1,1-1,1,.45,1,1-.45,1-1,1Zm1-3c-.55,0-1-.44-1-1s.45-1,1-1,1,.45,1,1-.45,1-1,1Z"/>
  <path class="cls-3" d="m18,6v4H6v-4l2.4,1.8c.45.34,1.07.25,1.4-.2l2.2-2.93,2.2,2.93c.33.45.96.53,1.4.2l2.4-1.8Z"/>
  <path class="cls-2" d="m13,16c0,.56-.45,1-1,1h-1v1c0,.56-.45,1-1,1s-1-.44-1-1v-1h-1c-.55,0-1-.44-1-1s.45-1,1-1h1v-1c0-.55.45-1,1-1s1,.45,1,1v1h1c.55,0,1,.45,1,1Z"/>
  <circle class="cls-2" cx="15" cy="17.5" r="1"/>
  <circle class="cls-2" cx="16" cy="14.5" r="1"/>
</svg>
