<?xml version="1.0" encoding="UTF-8"?>
<svg id="icons-ready-for-export" xmlns="http://www.w3.org/2000/svg" viewBox="0 0 24 24">
  <path d="M18,19c-.26,0-.51-.1-.71-.29L5.29,6.71c-.39-.39-.39-1.02,0-1.41s1.02-.39,1.41,0l12,12c.39.39.39,1.02,0,1.41-.2.2-.45.29-.71.29ZM8.15,10.98c-.09.33-.15.66-.15,1.02,0,1.14.49,2.17,1.26,2.9-1.41-.4-2.75-1.11-3.9-2.14l-.85-.76.85-.75c.56-.5,1.16-.92,1.79-1.27l-1.46-1.46c-.58.36-1.14.76-1.66,1.23l-1.69,1.51c-.22.18-.34.46-.34.74s.12.56.34.75l1.69,1.5c2.27,2.02,5.12,3.03,7.97,3.03.75,0,1.5-.07,2.24-.21l-6.09-6.09ZM21.66,11.26l-1.69-1.51c-2.87-2.55-6.66-3.49-10.21-2.82l6.09,6.09c.09-.33.15-.67.15-1.02,0-1.14-.49-2.16-1.26-2.89,1.41.4,2.75,1.11,3.9,2.14l.85.75-.85.76c-.56.5-1.16.92-1.79,1.27l1.46,1.46c.58-.36,1.14-.77,1.66-1.23l1.69-1.5c.22-.19.34-.46.34-.75s-.12-.56-.34-.74Z"/>
</svg>