<?xml version="1.0" encoding="UTF-8"?>
<svg id="icons-ready-for-export" xmlns="http://www.w3.org/2000/svg" viewBox="0 0 24 24">
  <path d="m8,3.96v3c0,.55-.45,1-1,1h-3c-.55,0-1-.45-1-1v-3c0-.55.45-1,1-1h3c.55,0,1,.45,1,1Zm-1,5.54h-3c-.55,0-1,.45-1,1v3c0,.55.45,1,1,1h3c.55,0,1-.45,1-1v-3c0-.55-.45-1-1-1Zm0,6.46h-3c-.55,0-1,.45-1,1v3c0,.55.45,1,1,1h3c.55,0,1-.45,1-1v-3c0-.55-.45-1-1-1ZM20,2.96h-3c-.55,0-1,.45-1,1v3c0,.55.45,1,1,1h3c.55,0,1-.45,1-1v-3c0-.55-.45-1-1-1Zm0,6.54h-3c-.55,0-1,.45-1,1v3c0,.55.45,1,1,1h3c.55,0,1-.45,1-1v-3c0-.55-.45-1-1-1Zm0,6.46h-3c-.55,0-1,.45-1,1v3c0,.55.45,1,1,1h3c.55,0,1-.45,1-1v-3c0-.55-.45-1-1-1ZM13.5,2.96h-3c-.55,0-1,.45-1,1v3c0,.55.45,1,1,1h3c.55,0,1-.45,1-1v-3c0-.55-.45-1-1-1Zm0,6.54h-3c-.55,0-1,.45-1,1v3c0,.55.45,1,1,1h3c.55,0,1-.45,1-1v-3c0-.55-.45-1-1-1Zm0,6.46h-3c-.55,0-1,.45-1,1v3c0,.55.45,1,1,1h3c.55,0,1-.45,1-1v-3c0-.55-.45-1-1-1Z"/>
</svg>