<?xml version="1.0" encoding="UTF-8"?>
<svg id="icons-ready-for-export" xmlns="http://www.w3.org/2000/svg" viewBox="0 0 24 24">
  <path d="M16.66,3.77c-1.49-1.33-3.49-1.95-5.48-1.73-3.1.36-5.67,2.86-6.1,5.95-.3,2.12.36,4.23,1.81,5.78.28.3.62.8.62,1.42v3.81c0,1.65,1.35,3,3,3h3c1.65,0,3-1.35,3-3v-3.89c0-.44.2-.9.56-1.28,1.25-1.31,1.93-3.02,1.93-4.83,0-1.99-.85-3.9-2.34-5.23ZM9.5,16.13h5v1.25h-5v-1.25ZM11.63,12.63h.75v2.25h-.75v-2.25ZM13.5,20h-3c-.55,0-1-.45-1-1v-.38s5,0,5,0v.38c0,.55-.45,1-1,1ZM15.62,12.45c-.66.69-1.03,1.55-1.09,2.42h-.9v-2.8l.98-3.93c.08-.33-.12-.67-.46-.76-.33-.08-.67.12-.76.46l-.88,3.53h-1.02l-.88-3.53c-.08-.33-.42-.54-.76-.46-.33.08-.54.42-.46.76l.98,3.93v2.8h-.91c-.08-.89-.46-1.75-1.13-2.47-1.03-1.11-1.5-2.62-1.29-4.14.31-2.2,2.14-3.98,4.35-4.24.2-.02.4-.03.6-.03,1.23,0,2.39.44,3.32,1.27,1.06.95,1.67,2.31,1.67,3.73,0,1.29-.49,2.52-1.38,3.45Z"/>
</svg>