<?xml version="1.0" encoding="UTF-8"?><svg id="icons-ready-for-export" xmlns="http://www.w3.org/2000/svg" width="24" height="24" viewBox="0 0 24 24"><path d="M14.12,16.95c.39,.39,.39,1.02,0,1.41l-.71,.71c-2.34,2.34-6.15,2.34-8.49,0s-2.34-6.15,0-8.49l.71-.71c2.34-2.34,6.15-2.34,8.49,0,.39,.39,.39,1.02,0,1.41-.39,.39-1.02,.39-1.41,0-1.56-1.56-4.1-1.56-5.66,0l-.71,.71c-1.56,1.56-1.56,4.1,0,5.66s4.1,1.56,5.66,0l.71-.71c.39-.39,1.02-.39,1.41,0Zm4.95-12.02c-2.34-2.34-6.15-2.34-8.49,0l-.71,.71c-.39,.39-.39,1.02,0,1.41s1.02,.39,1.41,0l.71-.71c1.56-1.56,4.1-1.56,5.66,0,1.56,1.56,1.56,4.1,0,5.66l-.71,.71c-1.56,1.56-4.1,1.56-5.66,0-.39-.39-1.02-.39-1.41,0-.39,.39-.39,1.02,0,1.41,2.34,2.34,6.15,2.34,8.49,0l.71-.71c2.34-2.34,2.34-6.15,0-8.49Z"/></svg>