<?xml version="1.0" encoding="UTF-8"?><svg id="icons-ready-for-export" xmlns="http://www.w3.org/2000/svg" width="24" height="24" viewBox="0 0 24 24"><path d="M12,17.66c.39,.39,.39,1.02,0,1.41-1.95,1.95-5.12,1.95-7.07,0-1.95-1.95-1.95-5.12,0-7.07l2.12-2.12c1.95-1.95,5.12-1.95,7.07,0,.39,.39,.39,1.02,0,1.41-.39,.39-1.02,.39-1.41,0-1.17-1.17-3.07-1.17-4.24,0l-2.12,2.12c-1.17,1.17-1.17,3.07,0,4.24,1.17,1.17,3.07,1.17,4.24,0,.39-.39,1.02-.39,1.41,0Zm7.07-12.73c-1.95-1.95-5.12-1.95-7.07,0-.39,.39-.39,1.02,0,1.41,.39,.39,1.02,.39,1.41,0,1.17-1.17,3.07-1.17,4.24,0,1.17,1.17,1.17,3.07,0,4.24l-2.12,2.12c-1.17,1.17-3.07,1.17-4.24,0-.39-.39-1.02-.39-1.41,0-.39,.39-.39,1.02,0,1.41,1.95,1.95,5.12,1.95,7.07,0l2.12-2.12c1.95-1.95,1.95-5.12,0-7.07Z"/></svg>