<?xml version="1.0" encoding="UTF-8"?><svg id="icons-ready-for-export" xmlns="http://www.w3.org/2000/svg" width="24" height="24" viewBox="0 0 24 24"><path d="M12,2.1c-.18,0-.36,0-.54,.02-4.15,.27-7.48,3.85-7.46,8.01,.02,5.84,5.63,10.29,7.47,11.58,.17,.12,.37,.18,.57,.18s.4-.06,.58-.19c1.82-1.3,7.38-5.76,7.38-11.61,0-4.42-3.58-8-8-8Zm.04,17.55c-1.96-1.5-6.02-5.13-6.04-9.53,0-3.11,2.5-5.81,5.59-6.01,.14,0,.27-.01,.41-.01,3.31,0,6,2.69,6,6,0,4.41-4.02,8.05-5.96,9.55Zm2.96-9.55c0,1.66-1.34,3-3,3s-3-1.34-3-3,1.34-3,3-3,3,1.34,3,3Z"/></svg>