<?xml version="1.0" encoding="UTF-8"?>
<svg id="icons-ready-for-export" xmlns="http://www.w3.org/2000/svg" viewBox="0 0 24 24">
  <defs>
    <style>
      .cls-1 {
        stroke-width: 0px;
      }
    </style>
  </defs>
  <path class="cls-1" d="m10,15c0-1.1.9-2,2-2s2,.9,2,2c0,.74-.4,1.38-1,1.72v1.28c0,.55-.45,1-1,1s-1-.45-1-1v-1.28c-.6-.35-1-.98-1-1.72Zm10-4v10c0,.55-.45,1-1,1H5c-.55,0-1-.45-1-1v-10c0-.55.45-1,1-1h2v-3c0-2.76,2.24-5,5-5s5,2.24,5,5v3h2c.55,0,1,.45,1,1Zm-11-1h6v-3c0-1.65-1.35-3-3-3s-3,1.35-3,3v3Zm9,2H6v8h12v-8Z"/>
</svg>