<?xml version="1.0" encoding="UTF-8"?>
<svg id="icons-ready-for-export" xmlns="http://www.w3.org/2000/svg" viewBox="0 0 24 24">
  <defs>
    <style>
      .cls-1 {
        stroke-width: 0px;
      }
    </style>
  </defs>
  <path class="cls-1" d="m19,10h-2v-3c0-2.76-2.24-5-5-5s-5,2.24-5,5v3h-2c-.56,0-1,.44-1,1v10c0,.55.44,1,1,1h14c.55,0,1-.45,1-1v-10c0-.56-.45-1-1-1Zm-10-3c0-1.65,1.35-3,3-3s3,1.35,3,3v3h-6v-3Zm4,9.72v1.28c0,.55-.45,1-1,1s-1-.45-1-1v-1.27c-.6-.34-1-.99-1-1.73,0-1.11.89-2,2-2s2,.89,2,2c0,.74-.4,1.38-1,1.72Z"/>
</svg>