<?xml version="1.0" encoding="UTF-8"?>
<svg id="icons-ready-for-export" xmlns="http://www.w3.org/2000/svg" viewBox="0 0 24 24">
  <defs>
    <style>
      .cls-1 {
        fill: #f2d53f;
      }

      .cls-2 {
        fill: #372e2e;
      }
    </style>
  </defs>
  <path class="cls-2" d="M21,4H3c-.56,0-1,.45-1,1v16c0,.37.2.71.53.89.14.08.3.11.47.11.19,0,.38-.05.55-.16l2.75-1.84h14.7c.55,0,1-.44,1-1V5c0-.55-.45-1-1-1ZM20,18H6c-.2,0-.39.06-.56.17l-1.44.97V6h16v12Z"/>
  <path class="cls-1" d="M20,6v12H6c-.2,0-.39.06-.56.17l-1.44.97V6h16Z"/>
  <circle class="cls-2" cx="12" cy="12" r="1"/>
  <circle class="cls-2" cx="16" cy="12" r="1"/>
  <circle class="cls-2" cx="8" cy="12" r="1"/>
</svg>