<svg width="10" height="10" viewBox="0 0 10 10" xmlns="http://www.w3.org/2000/svg">
<path d="M1.22228 6.87859C0.831751 7.26911 0.831751 7.90228 1.22228 8.2928C1.6128 8.68333 2.24596 8.68333 2.63649 8.2928L8.29334 2.63595C8.68387 2.24542 8.68387 1.61226 8.29334 1.22173C7.90282 0.83121 7.26965 0.831209 6.87913 1.22173L1.22228 6.87859Z"/>
<path d="M5.46446 8.29289C5.07394 8.68342 5.07394 9.31658 5.46446 9.70711C5.85499 10.0976 6.48815 10.0976 6.87868 9.70711L9.7071 6.87868C10.0976 6.48816 10.0976 5.85499 9.7071 5.46447C9.31658 5.07394 8.68341 5.07394 8.29289 5.46447L5.46446 8.29289Z"/>
</svg>
