<?xml version="1.0" encoding="UTF-8"?>
<svg id="icons-ready-for-export" xmlns="http://www.w3.org/2000/svg" viewBox="0 0 24 24">
  <path d="M5.52,8.35l10.65,10.65h-2.17c0,1.1-.9,2-2,2-.55,0-1.05-.23-1.42-.59-.36-.36-.58-.86-.58-1.41h-5.84c-1.19,0-2.16-.97-2.16-2.17,0-.93.59-1.75,1.48-2.05l1.57-.52.47-5.91ZM20.52,14.78l-1.58-.52-.49-6.38c-.31-3.35-3.08-5.88-6.45-5.88-1.97,0-3.73.86-4.92,2.25l14.2,14.2c.44-.4.72-.98.72-1.62,0-.93-.6-1.75-1.48-2.05ZM20.35,18.94L6.49,5.07l-1.78-1.78c-.4-.39-1.03-.39-1.42,0s-.39,1.02,0,1.41l2.39,2.39,11.91,11.91,1.7,1.7c.2.2.45.3.71.3s.51-.1.7-.3c.4-.39.4-1.02,0-1.41l-.35-.35Z"/>
</svg>