<?xml version="1.0" encoding="UTF-8"?>
<svg id="icons-ready-for-export" xmlns="http://www.w3.org/2000/svg" viewBox="0 0 24 24">
  <path d="M4.17,17c-.09,0-.17-.07-.17-.16,0-.07.05-.13.12-.15l2.2-.74c.38-.13.65-.47.68-.87l.38-4.87-1.86-1.86-.46,5.91-1.58.53c-.88.29-1.48,1.12-1.48,2.05,0,1.19.97,2.16,2.17,2.16h4.83c0,1.65,1.35,3,3,3s3-1.35,3-3h1.17l-2-2H4.17ZM12,20c-.55,0-1-.45-1-1h2c0,.56-.44,1-1,1ZM22,16.84c0,.64-.28,1.22-.72,1.61l-1.45-1.45h.01c.09,0,.16-.07.16-.16,0-.07-.04-.13-.11-.15l-.56-.19-2.4-2.4-.47-6.04c-.21-2.31-2.13-4.06-4.46-4.06-1.41,0-2.67.64-3.5,1.67l-1.41-1.41c1.17-1.39,2.94-2.26,4.91-2.26,3.38,0,6.15,2.53,6.45,5.89l.5,6.37,1.58.53c.88.29,1.47,1.12,1.47,2.05ZM20.71,19.29c.39.4.39,1.03,0,1.42-.19.19-.45.29-.71.29s-.51-.1-.7-.29l-1.71-1.71h0l-2-2h0L7.49,8.9l-1.81-1.81-2.38-2.38c-.39-.39-.39-1.02,0-1.42.39-.39,1.02-.39,1.41,0l1.78,1.78,1.48,1.48,10.45,10.45,1.94,1.94.35.35Z"/>
</svg>