<?xml version="1.0" encoding="UTF-8"?><svg id="icons-ready-for-export" xmlns="http://www.w3.org/2000/svg" width="24" height="24" viewBox="0 0 24 24"><path d="M18,12v-2c0-2.96-2.16-5.44-5-5.91v-.09c0-.55-.44-1-1-1s-1,.45-1,1v.09c-2.83,.47-5,2.95-5,5.91v2c-1.65,0-3,1.35-3,3s1.35,3,3,3h3c0,1.66,1.35,3,3,3s3-1.34,3-3h3c1.66,0,3-1.34,3-3s-1.34-3-3-3Zm-6,7c-.55,0-1-.44-1-1h2c0,.56-.44,1-1,1Zm6-3H6c-.55,0-1-.44-1-1s.45-1,1-1h2v-4c0-1.86,1.28-3.43,3.01-3.87,.32-.09,.65-.13,.99-.13s.67,.04,.99,.13c1.73,.44,3.01,2.01,3.01,3.87v4h2c.56,0,1,.45,1,1s-.44,1-1,1Z"/></svg>