<?xml version="1.0" encoding="UTF-8"?><svg id="icons-ready-for-export" xmlns="http://www.w3.org/2000/svg" width="24" height="24" viewBox="0 0 24 24"><path d="M18,13v-3c0-2.96-2.17-5.44-5.01-5.91,0-.03,0-.06,0-.09,0-.55-.44-1-1-1s-1,.45-1,1c0,.03,0,.06,.01,.09-2.83,.47-5.01,2.95-5.01,5.91v3c-1.65,0-3,1.35-3,3s1.35,3,3,3h4c0,.56,.22,1.06,.59,1.42,.36,.36,.86,.58,1.41,.58,1.11,0,2-.89,2-2h4c1.66,0,3-1.34,3-3s-1.34-3-3-3Zm0,4H6c-.55,0-1-.44-1-1s.45-1,1-1h2v-5c0-2.2,1.8-4,4-4s4,1.8,4,4v5h2c.56,0,1,.45,1,1s-.44,1-1,1Z"/></svg>