<?xml version="1.0" encoding="UTF-8"?>
<svg id="icons-ready-for-export" xmlns="http://www.w3.org/2000/svg" viewBox="0 0 24 24">
  <path d="m21,4H3c-.55,0-1,.45-1,1v14c0,.55.45,1,1,1h18c.56,0,1-.45,1-1V5c0-.55-.44-1-1-1Zm-1.29,12.29c.19.19.29.45.29.71s-.1.52-.29.71-.45.29-.71.29-.51-.1-.7-.29l-4.29-4.29-1.3,1.29c-.19.19-.45.29-.71.29s-.51-.1-.7-.29l-1.29-1.29-4.3,4.29c-.19.19-.45.29-.71.29s-.51-.1-.7-.29c-.39-.39-.39-1.03,0-1.42l4.29-4.29-4.29-4.29c-.39-.39-.39-1.03,0-1.42.2-.19.45-.29.7-.29s.52.1.71.29l4.94,4.95s.04.03.06.05c.02.02.04.04.05.06l1.24,1.24,6.3-6.3c.2-.19.45-.29.7-.29s.52.1.71.29.29.45.29.71-.1.52-.29.71l-4.29,4.29,4.29,4.29Z"/>
</svg>