<?xml version="1.0" encoding="UTF-8"?>
<svg id="icons-ready-for-export" xmlns="http://www.w3.org/2000/svg" viewBox="0 0 24 24">
  <path d="M20.52,14.79l-1.58-.53-.5-6.37c-.31-3.36-3.08-5.89-6.45-5.89s-6.14,2.53-6.45,5.9l-.5,6.36-1.58.53c-.88.29-1.48,1.12-1.48,2.05,0,1.19.97,2.16,2.16,2.16h4.84s0,0,0,0c0,1.65,1.35,3,3,3s3-1.35,3-3c0,0,0,0,0,0h4.84c1.19,0,2.16-.97,2.16-2.16,0-.93-.59-1.76-1.48-2.05ZM13,19c0,.55-.45,1-1,1s-1-.45-1-1c0,0,0,0,0,0h2s0,0,0,0ZM19.84,17H4.16c-.09,0-.16-.07-.16-.16,0-.07.04-.13.11-.15l2.21-.74c.38-.13.65-.47.68-.87l.55-7.01c.21-2.32,2.13-4.07,4.46-4.07s4.25,1.75,4.46,4.06l.55,7.02c.03.4.3.74.68.87l2.21.74c.07.02.11.08.11.15,0,.09-.07.16-.16.16Z"/>
</svg>