<?xml version="1.0" encoding="UTF-8"?>
<svg id="icons-ready-for-export" xmlns="http://www.w3.org/2000/svg" viewBox="0 0 24 24">
  <path d="M14,13c-4.42,0-8,3.58-8,8,0,.55.45,1,1,1h14c.55,0,1-.45,1-1,0-4.42-3.58-8-8-8ZM8.08,20c.48-2.83,2.95-5,5.92-5s5.44,2.17,5.92,5h-11.83ZM14,12c2.76,0,5-2.24,5-5s-2.24-5-5-5-5,2.24-5,5,2.24,5,5,5ZM14,4c1.65,0,3,1.35,3,3s-1.35,3-3,3-3-1.35-3-3,1.35-3,3-3ZM8,12.96h-2v2c0,.55-.45,1-1,1s-1-.45-1-1v-2H2c-.55,0-1-.45-1-1s.45-1,1-1h2v-2c0-.55.45-1,1-1s1,.45,1,1v2h2c.55,0,1,.45,1,1s-.45,1-1,1Z"/>
</svg>