<?xml version="1.0" encoding="UTF-8"?><svg id="icons-ready-for-export" xmlns="http://www.w3.org/2000/svg" width="24" height="24" viewBox="0 0 24 24"><path d="M8.17,14.4c.31-.46,.92-.58,1.39-.28,1.49,.99,3.4,.99,4.89,0,.46-.31,1.08-.18,1.39,.28,.31,.46,.18,1.08-.28,1.38-1.08,.72-2.32,1.08-3.55,1.08s-2.47-.36-3.55-1.08c-.46-.31-.58-.92-.28-1.38Zm11.83-3.44c-.55,0-1,.45-1,1,0,3.86-3.14,7-7,7s-7-3.14-7-7,3.14-7,7-7c.55,0,1-.45,1-1s-.45-1-1-1C7.04,2.96,3,6.99,3,11.96s4.04,9,9,9,9-4.04,9-9c0-.55-.45-1-1-1Zm1-6h-2v-2c0-.55-.45-1-1-1s-1,.45-1,1v2h-2c-.55,0-1,.45-1,1s.45,1,1,1h2v2c0,.55,.45,1,1,1s1-.45,1-1v-2h2c.55,0,1-.45,1-1s-.45-1-1-1Zm-12,7c.55,0,1-.45,1-1s-.45-1-1-1-1,.45-1,1,.45,1,1,1Zm6-2c-.55,0-1,.45-1,1s.45,1,1,1,1-.45,1-1-.45-1-1-1Z"/></svg>