<?xml version="1.0" encoding="UTF-8"?>
<svg id="icons-ready-for-export" xmlns="http://www.w3.org/2000/svg" viewBox="0 0 24 24">
  <path d="M19.88,13.41c-.29,1.62-1.05,3.08-2.22,4.25-1.56,1.56-3.61,2.34-5.66,2.34s-4.1-.78-5.66-2.34c-3.12-3.12-3.12-8.2,0-11.31,2.98-2.98,7.73-3.11,10.87-.41l-.46-2.01c-.12-.54.21-1.08.75-1.2.54-.12,1.08.21,1.2.75l1.05,4.54c.12.54-.21,1.08-.75,1.2l-4.54,1.05c-.08.02-.15.03-.23.03-.46,0-.87-.31-.97-.77-.12-.54.21-1.08.75-1.2l2.29-.53s-.03-.02-.05-.03c-2.34-2.34-6.15-2.34-8.49,0-2.34,2.34-2.34,6.15,0,8.49,2.34,2.34,6.15,2.34,8.49,0,.87-.87,1.45-1.97,1.66-3.18.1-.54.62-.91,1.16-.81.54.1.91.62.81,1.16Z"/>
</svg>