<?xml version="1.0" encoding="UTF-8"?><svg id="icons-ready-for-export" xmlns="http://www.w3.org/2000/svg" width="24" height="24" viewBox="0 0 24 24"><path d="M20.05,10.68l-1.28-.43c-.17-.65-.42-1.25-.75-1.81l.6-1.21c.27-.53,.16-1.18-.26-1.6-.42-.42-1.07-.53-1.6-.26l-1.21,.6c-.56-.33-1.17-.59-1.81-.75l-.43-1.28c-.19-.57-.72-.95-1.32-.95s-1.13,.38-1.32,.95l-.43,1.28c-.65,.17-1.25,.42-1.81,.75l-1.21-.6c-.53-.27-1.18-.16-1.6,.26-.42,.42-.53,1.07-.26,1.6l.6,1.21c-.33,.56-.59,1.17-.75,1.81l-1.28,.43c-.57,.19-.95,.72-.95,1.32s.38,1.13,.95,1.32l1.28,.43c.17,.65,.42,1.25,.75,1.81l-.6,1.21c-.27,.53-.16,1.18,.26,1.6s1.07,.53,1.6,.26l1.21-.6c.56,.33,1.17,.59,1.81,.75l.43,1.28c.19,.57,.72,.95,1.32,.95s1.13-.38,1.32-.95l.43-1.28c.65-.17,1.25-.42,1.81-.75l1.21,.6c.53,.27,1.18,.16,1.6-.26s.53-1.07,.26-1.6l-.6-1.21c.33-.56,.59-1.17,.75-1.81l1.28-.43c.57-.19,.95-.72,.95-1.32s-.38-1.13-.95-1.32Zm-8.05,6.32c-2.76,0-5-2.24-5-5s2.24-5,5-5,5,2.24,5,5-2.24,5-5,5Zm3-5c0,1.66-1.34,3-3,3s-3-1.34-3-3,1.34-3,3-3,3,1.34,3,3Z"/></svg>