<?xml version="1.0" encoding="UTF-8"?><svg id="icons-ready-for-export" xmlns="http://www.w3.org/2000/svg" width="24" height="24" viewBox="0 0 24 24"><path d="M20.05,10.68l-1.28-.42c-.16-.65-.42-1.26-.75-1.82l.6-1.2c.27-.54,.17-1.18-.26-1.6-.42-.43-1.06-.53-1.6-.26l-1.2,.6c-.56-.33-1.17-.59-1.82-.75l-.42-1.28c-.19-.57-.72-.95-1.32-.95s-1.13,.38-1.32,.95l-.42,1.28c-.65,.16-1.26,.42-1.82,.75l-1.2-.6c-.54-.27-1.18-.17-1.6,.26-.43,.42-.53,1.06-.26,1.6l.6,1.2c-.33,.56-.59,1.17-.75,1.82l-1.28,.42c-.57,.19-.95,.72-.95,1.32s.38,1.13,.95,1.32l1.28,.42c.16,.65,.42,1.26,.75,1.82l-.6,1.2c-.27,.54-.17,1.18,.26,1.6,.42,.43,1.06,.53,1.6,.26l1.2-.6c.56,.33,1.17,.59,1.82,.75l.42,1.28c.19,.57,.72,.95,1.32,.95s1.13-.38,1.32-.95l.42-1.28c.65-.16,1.26-.42,1.82-.75l1.2,.6c.54,.27,1.18,.17,1.6-.26,.43-.42,.53-1.06,.26-1.6l-.6-1.2c.33-.56,.59-1.17,.75-1.82l1.28-.42c.57-.19,.95-.72,.95-1.32s-.38-1.13-.95-1.32Zm-8.05,4.32c-1.66,0-3-1.34-3-3s1.34-3,3-3,3,1.34,3,3-1.34,3-3,3Z"/></svg>