<?xml version="1.0" encoding="UTF-8"?><svg id="icons-ready-for-export" xmlns="http://www.w3.org/2000/svg" width="24" height="24" viewBox="0 0 24 24"><path d="M21,17.5c0,1.93-1.57,3.5-3.5,3.5s-3.5-1.57-3.5-3.5c0-.2,.02-.41,.06-.6l-5.02-2.51c-.63,.69-1.54,1.11-2.54,1.11-1.93,0-3.5-1.57-3.5-3.5s1.57-3.5,3.5-3.5c1,0,1.91,.42,2.55,1.11l5.01-2.5c-.04-.2-.06-.4-.06-.61,0-1.93,1.58-3.5,3.5-3.5s3.5,1.57,3.5,3.5-1.57,3.5-3.5,3.5c-1,0-1.9-.42-2.54-1.11l-5.02,2.51c.04,.19,.06,.4,.06,.6s-.02,.41-.06,.6l5.02,2.51c.64-.68,1.54-1.11,2.54-1.11,1.93,0,3.5,1.58,3.5,3.5Z"/></svg>