<?xml version="1.0" encoding="UTF-8"?><svg id="icons-ready-for-export" xmlns="http://www.w3.org/2000/svg" width="24" height="24" viewBox="0 0 24 24"><path d="M17.5,14c-1,0-1.9,.43-2.54,1.11l-5.02-2.51c.04-.19,.06-.4,.06-.6s-.02-.41-.06-.6l5.02-2.51c.64,.69,1.54,1.11,2.54,1.11,1.93,0,3.5-1.57,3.5-3.5s-1.57-3.5-3.5-3.5-3.5,1.57-3.5,3.5c0,.21,.02,.41,.06,.61l-5.01,2.5c-.64-.69-1.55-1.11-2.55-1.11-1.93,0-3.5,1.57-3.5,3.5s1.57,3.5,3.5,3.5c1,0,1.91-.42,2.54-1.11l5.02,2.51c-.04,.19-.06,.4-.06,.6,0,1.93,1.58,3.5,3.5,3.5s3.5-1.57,3.5-3.5-1.57-3.5-3.5-3.5Zm-1.44-7.89c.17-.64,.76-1.11,1.44-1.11,.83,0,1.5,.68,1.5,1.5s-.67,1.5-1.5,1.5c-.19,0-.37-.04-.54-.11-.56-.21-.96-.75-.96-1.39,0-.14,.02-.27,.06-.39ZM7.05,13.39c-.17,.07-.36,.11-.55,.11-.68,0-1.27-.46-1.44-1.1-.04-.13-.06-.26-.06-.4s.02-.27,.06-.39c.17-.64,.76-1.11,1.44-1.11,.19,0,.38,.04,.55,.11,.56,.22,.95,.76,.95,1.39s-.39,1.18-.95,1.39Zm10.45,5.61c-.68,0-1.27-.46-1.44-1.1-.04-.13-.06-.26-.06-.4,0-.63,.4-1.17,.95-1.39,.17-.07,.36-.11,.55-.11,.83,0,1.5,.68,1.5,1.5s-.67,1.5-1.5,1.5Z"/></svg>