<?xml version="1.0" encoding="UTF-8"?><svg id="icons-ready-for-export" xmlns="http://www.w3.org/2000/svg" width="24" height="24" viewBox="0 0 24 24"><path d="M21,18c0,1.66-1.34,3-3,3s-3-1.34-3-3c0-.12,.02-.24,.04-.36l-6.96-3.48c-.54,.52-1.27,.84-2.08,.84-1.66,0-3-1.34-3-3s1.34-3,3-3c.81,0,1.54,.32,2.08,.84l6.96-3.48c-.01-.12-.04-.24-.04-.36,0-1.66,1.34-3,3-3s3,1.34,3,3-1.34,3-3,3c-.81,0-1.54-.32-2.08-.84l-6.96,3.48c.01,.12,.04,.24,.04,.36s-.02,.24-.04,.36l6.96,3.48c.54-.52,1.27-.84,2.08-.84,1.66,0,3,1.34,3,3Z"/></svg>