<?xml version="1.0" encoding="UTF-8"?><svg id="icons-ready-for-export" xmlns="http://www.w3.org/2000/svg" width="24" height="24" viewBox="0 0 24 24"><path d="M22,14c0,.26-.1,.51-.29,.71l-4,4c-.39,.39-1.02,.39-1.41,0l-4-4c-.39-.39-.39-1.02,0-1.41s1.02-.39,1.41,0l2.29,2.29V6c0-.55,.45-1,1-1s1,.45,1,1V15.59l2.29-2.29c.39-.39,1.02-.39,1.41,0,.2,.2,.29,.45,.29,.71Zm-10.29-4.71L7.71,5.29c-.39-.39-1.02-.39-1.41,0L2.29,9.29c-.2,.2-.29,.45-.29,.71s.1,.51,.29,.71c.39,.39,1.02,.39,1.41,0l2.29-2.29v9.59c0,.55,.45,1,1,1s1-.45,1-1V8.41l2.29,2.29c.39,.39,1.02,.39,1.41,0s.39-1.02,0-1.41Z"/></svg>