<?xml version="1.0" encoding="UTF-8"?>
<svg id="icons-ready-for-export" xmlns="http://www.w3.org/2000/svg" viewBox="0 0 24 24">
  <defs>
    <style>
      .cls-1 {
        fill: #fa502c;
      }

      .cls-1, .cls-2 {
        stroke-width: 0px;
      }

      .cls-2 {
        fill: #fbf4ea;
      }
    </style>
  </defs>
  <path class="cls-1" d="m12,0C5.39,0,0,5.37,0,12s5.39,12,12,12,12-5.39,12-12S18.63,0,12,0Zm4,14.67c0,.73-.6,1.33-1.33,1.33h-5.33c-.73,0-1.33-.6-1.33-1.33v-5.33c0-.75.6-1.33,1.33-1.33h5.33c.73,0,1.33.59,1.33,1.33v5.33Z"/>
  <path class="cls-2" d="m16,9.33v5.33c0,.73-.6,1.33-1.33,1.33h-5.33c-.73,0-1.33-.6-1.33-1.33v-5.33c0-.75.6-1.33,1.33-1.33h5.33c.73,0,1.33.59,1.33,1.33Z"/>
</svg>