<?xml version="1.0" encoding="UTF-8"?>
<svg id="icons-ready-for-export" xmlns="http://www.w3.org/2000/svg" viewBox="0 0 24 24">
  <defs>
    <style>
      .cls-1 {
        fill: #fbf4ea;
      }

      .cls-2 {
        fill: #fa502c;
      }
    </style>
  </defs>
  <path class="cls-2" d="m12,3C7.04,3,3,7.03,3,12s4.04,9,9,9,9-4.04,9-9S16.97,3,12,3Zm3,11c0,.55-.45,1-1,1h-4c-.55,0-1-.45-1-1v-4c0-.56.45-1,1-1h4c.55,0,1,.44,1,1v4Z"/>
  <path class="cls-1" d="m15,10v4c0,.55-.45,1-1,1h-4c-.55,0-1-.45-1-1v-4c0-.56.45-1,1-1h4c.55,0,1,.44,1,1Z"/>
</svg>