<?xml version="1.0" encoding="UTF-8"?>
<svg id="icons-ready-for-export" xmlns="http://www.w3.org/2000/svg" viewBox="0 0 24 24">
  <path d="M14,12c-.26,0-.51-.1-.71-.29-.39-.39-.39-1.02,0-1.41l2.29-2.29H6c-.55,0-1-.45-1-1s.45-1,1-1h9.59l-2.29-2.29c-.39-.39-.39-1.02,0-1.41s1.02-.39,1.41,0l4,4c.39.39.39,1.02,0,1.41l-4,4c-.2.2-.45.29-.71.29ZM10.71,21.71c.39-.39.39-1.02,0-1.41l-2.29-2.29h9.59c.55,0,1-.45,1-1s-.45-1-1-1h-9.59l2.29-2.29c.39-.39.39-1.02,0-1.41s-1.02-.39-1.41,0l-4,4c-.39.39-.39,1.02,0,1.41l4,4c.2.2.45.29.71.29s.51-.1.71-.29Z"/>
</svg>