<svg width="119" height="75" viewBox="0 0 119 75" fill="none" xmlns="http://www.w3.org/2000/svg">
<path d="M7.91773 63.6565C8.11821 63.6314 7.95932 63.6812 7.84134 63.8718C6.00375 66.8402 3.81805 69.5748 1.86218 72.4621C1.6465 72.7804 1.47224 73.1663 1.23023 73.4621C1.06793 73.6604 0.830763 73.7345 1.18162 73.6565C5.95009 72.5968 20.6775 72.5315 15.7927 72.5315" stroke="#221B1B" stroke-width="2" stroke-linecap="round"/>
<path d="M43.1524 37.522C42.9563 39.2876 40.5957 41.4723 39.7032 42.5903C36.167 47.0198 32.5566 51.3737 28.7394 55.5603C26.382 58.1458 23.4306 60.1242 20.6617 62.2301C15.3032 66.3056 9.76714 70.0217 3.55615 72.6835" stroke="#221B1B" stroke-width="2" stroke-linecap="round"/>
<path d="M40.7755 20.0443C40.7755 19.8265 40.7539 19.3158 40.903 20.0889C41.5182 23.2786 41.903 26.5208 42.3569 29.7367C42.4085 30.1024 42.8131 31.7095 42.4972 30.6039" stroke="#221B1B" stroke-width="1.45" stroke-linecap="round"/>
<path d="M35.9551 20.9625C36.073 20.6383 36.4765 20.5724 36.7649 20.4396C40.0018 18.9494 43.3254 17.5341 46.6996 16.3841C47.0033 16.2806 47.9092 15.9294 48.2364 16.2566" stroke="#221B1B" stroke-width="1.45" stroke-linecap="round"/>
<path d="M49.7284 23.1433C49.6701 23.085 49.5155 22.8959 49.4223 22.9137C48.227 23.143 46.8516 24.9576 46.2085 25.847C45.61 26.6748 45.2985 27.537 45.9407 28.4104C46.356 28.9752 47.2611 29.1938 47.9238 29.1245C49.1334 28.9982 49.8824 27.6483 50.2321 26.6249C50.6716 25.339 50.6466 24.0104 50.6466 22.6714C50.6466 22.3568 50.6611 22.7148 50.6721 22.7862C50.7541 23.3155 50.9284 23.8225 51.1312 24.3166C51.6231 25.5145 52.3125 27.506 53.6882 27.9257C55.2139 28.3912 55.8052 26.6442 56.156 25.5026C56.3883 24.7466 56.5673 23.9729 56.7044 23.1943C56.7159 23.1288 56.895 21.7653 57.0742 21.9445C57.3561 22.2264 57.3637 23.0106 57.4313 23.3601C57.618 24.3249 57.8375 25.283 58.0498 26.2423C58.4384 27.998 58.9158 29.7953 59.1147 31.5859C59.1838 32.2079 59.099 32.2702 59.1657 31.6114C59.2907 30.3774 59.1898 29.1149 59.0127 27.8875C58.6408 25.3106 57.0904 18.3759 61.9587 19.2026C63.7281 19.5031 64.1206 21.1584 63.0491 22.4164C61.8943 23.772 60.3582 24.5429 58.7959 25.3241" stroke="#221B1B" stroke-width="1.45" stroke-linecap="round"/>
<path d="M72.2251 11.5507C72.2379 11.4736 72.3052 11.6899 72.3144 11.7675C72.682 14.8636 72.9711 17.969 73.3474 21.0645C73.3573 21.1462 73.5112 25.0466 74.0616 23.0285" stroke="#221B1B" stroke-width="1.45" stroke-linecap="round"/>
<path d="M69.5849 18.3226C69.4596 18.3047 69.7575 18.1283 69.8718 18.0739C72.135 16.9962 74.7764 16.5085 77.1603 15.7975" stroke="#221B1B" stroke-width="1.45" stroke-linecap="round"/>
<path d="M82.44 16.027C82.3322 15.9192 82.2288 15.8032 82.0829 15.7465C81.7118 15.6021 81.0317 16.6839 80.9989 16.7285C80.2085 17.8028 79.1655 19.1291 78.9202 20.4843C78.783 21.2422 79.8605 21.4313 80.3995 21.4599C81.3511 21.5104 82.2472 21.0296 82.9884 20.4779C84.1822 19.5893 85.8152 17.4226 85.1182 15.8294C84.5072 14.4328 81.7932 15.607 80.8331 16.027" stroke="#221B1B" stroke-width="1.45" stroke-linecap="round"/>
<path d="M96.7877 13.2724C95.9124 12.5563 94.3647 13.9934 93.7715 14.4329C93.0355 14.9782 91.7367 15.8276 91.7247 16.9198C91.7188 17.4504 92.1777 18.2006 92.5281 18.5777C93.272 19.3782 94.538 19.6382 95.5124 19.0814C96.5689 18.4777 97.0435 17.1973 97.285 16.0781C97.5229 14.9758 97.3829 13.8904 97.1958 12.7941C97.0493 11.9363 97.1275 12.9529 97.2085 13.2469C97.5833 14.6065 98.0266 16.122 98.9812 17.2003C99.7904 18.1144 100.605 18.2049 101.723 18.0931" stroke="#221B1B" stroke-width="1.45" stroke-linecap="round"/>
<path d="M104.707 12.3541C104.69 12.3002 104.597 11.8507 104.516 11.844C104.192 11.817 103.506 12.3387 103.432 12.3924C102.725 12.9081 101.749 13.7476 101.149 14.3819C100.594 14.9699 100.119 15.5218 100.563 16.2821C100.834 16.7466 101.308 17.0475 101.838 17.1238C103.222 17.3231 104.513 16.1447 105.167 15.0578C106.324 13.1331 106.535 10.7005 106.544 8.50267C106.549 7.12895 106.41 5.67625 105.945 4.37065C105.635 3.50148 105.564 4.48127 105.536 4.90628C105.386 7.19771 105.531 9.71395 106.225 11.9078C106.735 13.5193 107.551 14.4694 109.069 15.1088" stroke="#221B1B" stroke-width="1.45" stroke-linecap="round"/>
<path d="M114.348 10.1734C113.774 9.59854 113.208 9.95495 112.525 10.3519C111.61 10.8829 109.372 12.0189 109.324 13.3106C109.301 13.9046 110.166 14.5539 110.644 14.7262C112.128 15.2615 113.698 14.4356 114.552 13.2214C115.751 11.5179 115.956 9.17838 116.051 7.16361C116.131 5.46947 116.182 3.65966 115.726 2.01133C115.602 1.56439 115.239 0.398377 114.897 1.38642C114.235 3.2989 114.666 5.64769 114.992 7.57171C115.355 9.70884 115.965 11.7699 117.447 13.3871" stroke="#221B1B" stroke-width="1.45" stroke-linecap="round"/>
<path d="M59.3696 37.4906C59.1553 36.4193 56.6369 38.0418 56.4427 38.1474C54.6158 39.1408 53.4272 40.1386 53.6817 42.273C53.8103 43.3518 54.1618 44.4377 55.3651 44.6324C56.6671 44.843 57.7463 44.0239 58.5916 43.1275C59.8208 41.8241 61.4331 39.1532 60.0328 37.3758C59.7336 36.9962 60.2536 38.6106 60.3006 38.7149C60.8026 39.8288 61.4153 40.8572 62.3283 41.6864C62.7072 42.0305 63.5601 42.6436 63.9352 41.9351C64.323 41.2026 64.0339 39.96 63.9607 39.1868C63.885 38.3865 63.566 37.0167 63.9735 36.2599C64.3185 35.6192 65.1599 37.5467 65.2488 37.7202C65.8886 38.9683 67.858 42.6642 68.7559 39.5694C69.217 37.9802 69.3979 36.3029 69.6933 34.6785C69.7115 34.5782 69.9425 33.3453 69.8144 33.4734" stroke="#221B1B" stroke-width="1.45" stroke-linecap="round"/>
<path d="M76.1275 34.0473C75.7375 33.6572 75.4987 33.7974 74.9287 34.0728C73.4902 34.7678 71.705 35.7151 71.9317 37.5416C72.2289 39.9356 74.5936 40.2196 75.764 38.2175C76.3129 37.2788 76.5262 36.1727 76.5739 35.0994C76.5942 34.6422 76.5903 34.1851 76.5611 33.7284C76.5593 33.7001 76.4771 33.1553 76.6058 33.5626C76.9316 34.5943 77.1348 35.6543 77.6961 36.5979C78.4583 37.879 79.4782 38.075 80.8334 38.1793" stroke="#221B1B" stroke-width="1.45" stroke-linecap="round"/>
<path d="M82.3257 26.3571C82.3183 26.2975 82.2818 26.2047 82.2109 26.2934C82.1695 26.3451 82.1149 26.4932 82.1217 26.5484C82.2049 27.2325 82.7004 28.9608 82.7848 29.2648C83.5684 32.0848 84.1896 35.193 85.3992 37.8732C85.4407 37.9651 85.5229 37.7048 85.5395 37.6054" stroke="#221B1B" stroke-width="1.45" stroke-linecap="round"/>
<path d="M80.6038 33.4734C80.4321 33.626 80.416 33.5618 80.6549 33.4734C83.0275 32.5946 85.4265 31.8441 87.8349 31.063" stroke="#221B1B" stroke-width="1.45" stroke-linecap="round"/>
<path d="M94.0533 30.7088C93.8186 30.4741 93.7096 30.2717 93.3582 30.543C92.7868 30.9842 92.0952 31.7905 91.6748 32.2965C91.3118 32.7336 90.0539 34.0094 90.1763 34.7898C90.2369 35.1759 91.123 35.5182 91.4389 35.5486C92.313 35.6326 93.1223 35.1079 93.6516 34.4646C94.6963 33.1944 94.8567 31.6947 94.8567 30.1094C94.8567 30.0099 94.8058 29.2771 94.8822 29.7778C95.0156 30.6507 95.2269 31.6095 95.6474 32.3922C96.2073 33.4341 97.5638 34.3119 98.3639 32.9533C98.7578 32.2843 98.7349 31.4087 98.823 30.6641C98.9582 29.5206 99.3329 28.3629 100.264 27.6097C101.316 26.7592 103.567 26.7098 103.822 28.4004C103.972 29.3948 103.573 30.3839 103.401 31.3464C103.154 32.734 103.999 32.8366 105.072 33.2339" stroke="#221B1B" stroke-width="1.45" stroke-linecap="round"/>
</svg>
