<?xml version="1.0" encoding="UTF-8"?>
<svg id="icons-ready-for-export" xmlns="http://www.w3.org/2000/svg" viewBox="0 0 24 24">
  <path d="M21.66,11.25l-1.69-1.5c-4.55-4.04-11.4-4.04-15.94,0l-1.69,1.5c-.21.19-.34.46-.34.75s.12.56.34.75l1.69,1.5c2.27,2.02,5.12,3.03,7.97,3.03s5.7-1.01,7.97-3.03l1.69-1.5c.21-.19.34-.46.34-.75s-.12-.56-.34-.75ZM12,14c-1.1,0-2-.9-2-2s.9-2,2-2,2,.9,2,2-.9,2-2,2ZM4.51,12l.85-.76c1.16-1.03,2.49-1.74,3.9-2.14-.77.73-1.25,1.75-1.25,2.89s.49,2.16,1.25,2.89c-1.41-.4-2.74-1.11-3.9-2.14l-.85-.76ZM18.64,12.76c-1.16,1.03-2.49,1.74-3.9,2.14.77-.73,1.25-1.75,1.25-2.89s-.49-2.16-1.25-2.89c1.41.4,2.74,1.11,3.9,2.14l.85.76-.85.76Z"/>
</svg>