<?xml version="1.0" encoding="UTF-8"?>
<svg id="icons-ready-for-export" xmlns="http://www.w3.org/2000/svg" viewBox="0 0 24 24">
  <path d="m9,12c0,1.1-.9,2-2,2s-2-.9-2-2,.9-2,2-2,2,.9,2,2Zm8-2c-1.1,0-2,.9-2,2s.9,2,2,2,2-.9,2-2-.9-2-2-2Zm5,2c0,2.76-2.25,5-5,5-2.02,0-3.77-1.2-4.55-2.93-.17-.38-.72-.38-.89,0-.79,1.73-2.53,2.93-4.55,2.93-2.75,0-5-2.24-5-5,0-2.04,1.34-3.9,3-4.58.8-.33,2.43-.94,3.23-1.26.24-.1.5-.16.77-.16,1.11,0,2,.9,2,2,0,.56.45,1,1,1s.96-.4,1-.93c.05-.74.43-1.46,1.08-1.82.59-.33,1.19-.3,1.69-.09.8.32,2.43.93,3.23,1.26,1.66.68,3,2.54,3,4.58Zm-12,0c0-.78-.3-1.47-.78-2.01h-.01c-.47-.54-1.16-.91-1.93-.97-.09-.02-.19-.02-.28-.02-1.65,0-3,1.35-3,3s1.35,3,3,3,3-1.34,3-3Zm10,0c0-1.65-1.35-3-3-3-.09,0-.19,0-.28.02-.77.06-1.46.43-1.93.97h-.01c-.48.54-.78,1.23-.78,2.01,0,1.66,1.34,3,3,3s3-1.34,3-3Z"/>
</svg>